  0
SECTION
  2
HEADER
999
 Generated by InCAM
999
  Job : semicon, Step : org
  9
$FILLMODE
 70
1
  9
$MEASUREMENT
 70
1
  0
ENDSEC
   0
SECTION
   2
TABLES
  0
TABLE
2
LAYER
 70
1
  0
LAYER
  2
0
 70
64
 62
1
  6
CONTINUOUS
  0
ENDTAB
  0
ENDSEC
  0
SECTION
2
BLOCKS
  0
BLOCK
  8
0
  2
PAD_R1
 70
64
 10
0.0
 20
0.0
  0
POLYLINE
  8
0
 10
0.0
 20
0.0
 40
0.5
 41
0.5
 66
1
 70
1
  0
VERTEX
  8
0
 10
0.25
 20
0.0
 42
1.0
  0
VERTEX
  8
0
 10
-0.25
 20
0.0
 42
1.0
  0
SEQEND
  0
ENDBLK
  0
BLOCK
  8
0
  2
PAD_S1
 70
64
 10
0.0
 20
0.0
  0
POLYLINE
  8
0
 10
0.0
 20
0.0
 40
1.0
 41
1.0
 66
1
  0
VERTEX
  8
0
 10
-0.5
 20
0
  0
VERTEX
  8
0
 10
0.5
 20
0
  0
SEQEND
  0
ENDBLK
  0
ENDSEC
  0
SECTION
  2
ENTITIES
  0
POLYLINE
  8
0
 66
1
  0
VERTEX
  8
0
 10
4.196358
 20
-0.203235
  0
VERTEX
  8
0
 10
0.240872
 20
-0.203235
  0
VERTEX
  8
0
 10
0.216427
 20
-0.228175
  0
VERTEX
  8
0
 10
0.189285
 20
-0.250150
  0
VERTEX
  8
0
 10
0.159805
 20
-0.268873
  0
VERTEX
  8
0
 10
0.128373
 20
-0.284095
  0
VERTEX
  8
0
 10
0.095405
 20
-0.295617
  0
VERTEX
  8
0
 10
0.061335
 20
-0.303287
  0
VERTEX
  8
0
 10
0.026613
 20
-0.307005
  0
VERTEX
  8
0
 10
-0.008310
 20
-0.306720
  0
VERTEX
  8
0
 10
-0.042970
 20
-0.302438
  0
VERTEX
  8
0
 10
-0.076910
 20
-0.294215
  0
VERTEX
  8
0
 10
-0.109685
 20
-0.282158
  0
VERTEX
  8
0
 10
-0.140865
 20
-0.266425
  0
VERTEX
  8
0
 10
-0.170035
 20
-0.247225
  0
VERTEX
  8
0
 10
-0.196815
 20
-0.224810
  0
VERTEX
  8
0
 10
-0.220853
 20
-0.199475
  0
VERTEX
  8
0
 10
-0.241830
 20
-0.171555
  0
VERTEX
  8
0
 10
-0.259470
 20
-0.141415
  0
VERTEX
  8
0
 10
-0.273543
 20
-0.109452
  0
VERTEX
  8
0
 10
-0.283863
 20
-0.076090
  0
VERTEX
  8
0
 10
-0.290293
 20
-0.041765
  0
VERTEX
  8
0
 10
-0.292747
 20
-0.006927
  0
VERTEX
  8
0
 10
-0.291197
 20
0.027960
  0
VERTEX
  8
0
 10
-0.285660
 20
0.062442
  0
VERTEX
  8
0
 10
-0.276213
 20
0.096062
  0
VERTEX
  8
0
 10
-0.262975
 20
0.128380
  0
VERTEX
  8
0
 10
-0.246122
 20
0.158968
  0
VERTEX
  8
0
 10
-0.225878
 20
0.187422
  0
VERTEX
  8
0
 10
-0.202505
 20
0.213372
  0
VERTEX
  8
0
 10
-0.176317
 20
0.236475
  0
VERTEX
  8
0
 10
-0.147652
 20
0.256425
  0
VERTEX
  8
0
 10
-0.116895
 20
0.272962
  0
VERTEX
  8
0
 10
-0.084443
 20
0.285867
  0
VERTEX
  8
0
 10
-0.050728
 20
0.294970
  0
VERTEX
  8
0
 10
-0.016190
 20
0.300150
  0
VERTEX
  8
0
 10
0.018712
 20
0.301340
  0
VERTEX
  8
0
 10
0.053520
 20
0.298528
  0
VERTEX
  8
0
 10
0.087780
 20
0.291743
  0
VERTEX
  8
0
 10
0.121035
 20
0.281083
  0
VERTEX
  8
0
 10
0.152850
 20
0.266680
  0
VERTEX
  8
0
 10
0.182805
 20
0.248730
  0
VERTEX
  8
0
 10
0.210510
 20
0.227467
  0
VERTEX
  8
0
 10
0.235595
 20
0.203170
  0
VERTEX
  8
0
 10
0.240872
 20
0.197285
  0
VERTEX
  8
0
 10
4.264930
 20
0.196675
  0
VERTEX
  8
0
 10
4.405543
 20
0.192612
  0
VERTEX
  8
0
 10
4.555260
 20
0.183512
  0
VERTEX
  8
0
 10
4.692303
 20
0.171338
  0
VERTEX
  8
0
 10
4.828932
 20
0.155175
  0
VERTEX
  8
0
 10
4.965033
 20
0.135035
  0
VERTEX
  8
0
 10
5.100485
 20
0.110937
  0
VERTEX
  8
0
 10
5.235180
 20
0.082900
  0
VERTEX
  8
0
 10
5.369002
 20
0.050950
  0
VERTEX
  8
0
 10
5.390660
 20
0.045390
  0
VERTEX
  8
0
 10
5.526917
 20
0.008175
  0
VERTEX
  8
0
 10
5.795085
 20
-0.078457
  0
VERTEX
  8
0
 10
5.928858
 20
-0.128080
  0
VERTEX
  8
0
 10
6.189265
 20
-0.238638
  0
VERTEX
  8
0
 10
6.316072
 20
-0.299113
  0
VERTEX
  8
0
 10
6.565440
 20
-0.432085
  0
VERTEX
  8
0
 10
6.687353
 20
-0.504185
  0
VERTEX
  8
0
 10
6.923822
 20
-0.658717
  0
VERTEX
  8
0
 10
7.036013
 20
-0.739247
  0
VERTEX
  8
0
 10
7.145815
 20
-0.823002
  0
VERTEX
  8
0
 10
7.253140
 20
-0.909907
  0
VERTEX
  8
0
 10
7.357895
 20
-0.999895
  0
VERTEX
  8
0
 10
7.459993
 20
-1.092888
  0
VERTEX
  8
0
 10
7.559348
 20
-1.188802
  0
VERTEX
  8
0
 10
7.569145
 20
-1.198570
  0
VERTEX
  8
0
 10
7.759870
 20
-1.380675
  0
VERTEX
  8
0
 10
7.982287
 20
-1.572428
  0
VERTEX
  8
0
 10
8.096877
 20
-1.663760
  0
VERTEX
  8
0
 10
8.217335
 20
-1.754422
  0
VERTEX
  8
0
 10
8.340162
 20
-1.841848
  0
VERTEX
  8
0
 10
8.465272
 20
-1.925975
  0
VERTEX
  8
0
 10
8.579263
 20
-1.998517
  0
VERTEX
  8
0
 10
8.707600
 20
-2.075445
  0
VERTEX
  8
0
 10
8.837953
 20
-2.148907
  0
VERTEX
  8
0
 10
8.970228
 20
-2.218847
  0
VERTEX
  8
0
 10
9.104330
 20
-2.285217
  0
VERTEX
  8
0
 10
9.240163
 20
-2.347968
  0
VERTEX
  8
0
 10
9.377630
 20
-2.407058
  0
VERTEX
  8
0
 10
9.516630
 20
-2.462440
  0
VERTEX
  8
0
 10
9.635745
 20
-2.506512
  0
VERTEX
  8
0
 10
9.914627
 20
-2.597925
  0
VERTEX
  8
0
 10
10.056040
 20
-2.637945
  0
VERTEX
  8
0
 10
10.199845
 20
-2.674840
  0
VERTEX
  8
0
 10
10.344595
 20
-2.707838
  0
VERTEX
  8
0
 10
10.490182
 20
-2.736912
  0
VERTEX
  8
0
 10
10.629810
 20
-2.760985
  0
VERTEX
  8
0
 10
10.779460
 20
-2.782643
  0
VERTEX
  8
0
 10
10.929630
 20
-2.800325
  0
VERTEX
  8
0
 10
11.080217
 20
-2.814017
  0
VERTEX
  8
0
 10
11.213492
 20
-2.822785
  0
VERTEX
  8
0
 10
11.360195
 20
-2.828663
  0
VERTEX
  8
0
 10
14.638290
 20
-2.829065
  0
SEQEND
  0
POLYLINE
  8
0
 66
1
  0
VERTEX
  8
0
 10
21.417127
 20
-2.829900
  0
VERTEX
  8
0
 10
21.573332
 20
-2.826195
  0
VERTEX
  8
0
 10
21.884465
 20
-2.806750
  0
VERTEX
  8
0
 10
22.193987
 20
-2.771807
  0
VERTEX
  8
0
 10
22.501658
 20
-2.721600
  0
VERTEX
  8
0
 10
22.654600
 20
-2.690815
  0
VERTEX
  8
0
 10
22.957380
 20
-2.617765
  0
VERTEX
  8
0
 10
23.256325
 20
-2.529608
  0
VERTEX
  8
0
 10
23.550552
 20
-2.426778
  0
VERTEX
  8
0
 10
23.839333
 20
-2.309345
  0
VERTEX
  8
0
 10
24.121945
 20
-2.177388
  0
VERTEX
  8
0
 10
24.262040
 20
-2.105637
  0
VERTEX
  8
0
 10
24.400263
 20
-2.030345
  0
VERTEX
  8
0
 10
24.536520
 20
-1.951553
  0
VERTEX
  8
0
 10
24.665308
 20
-1.872725
  0
VERTEX
  8
0
 10
24.796142
 20
-1.788370
  0
VERTEX
  8
0
 10
25.051435
 20
-1.609395
  0
VERTEX
  8
0
 10
25.177338
 20
-1.514058
  0
VERTEX
  8
0
 10
25.300780
 20
-1.415552
  0
VERTEX
  8
0
 10
25.421680
 20
-1.313945
  0
VERTEX
  8
0
 10
25.533795
 20
-1.214887
  0
VERTEX
  8
0
 10
25.647925
 20
-1.109120
  0
VERTEX
  8
0
 10
29.638268
 20
2.879385
  0
SEQEND
  0
POLYLINE
  8
0
 66
1
  0
VERTEX
  8
0
 10
31.033337
 20
4.273810
  0
VERTEX
  8
0
 10
31.200737
 20
4.452345
  0
VERTEX
  8
0
 10
31.281810
 20
4.547873
  0
VERTEX
  8
0
 10
31.359783
 20
4.645948
  0
VERTEX
  8
0
 10
31.434577
 20
4.746467
  0
VERTEX
  8
0
 10
31.506115
 20
4.849330
  0
VERTEX
  8
0
 10
31.574325
 20
4.954428
  0
VERTEX
  8
0
 10
31.639135
 20
5.061655
  0
VERTEX
  8
0
 10
31.644665
 20
5.071175
  0
VERTEX
  8
0
 10
31.705560
 20
5.181012
  0
VERTEX
  8
0
 10
31.762915
 20
5.292738
  0
VERTEX
  8
0
 10
31.816675
 20
5.406237
  0
VERTEX
  8
0
 10
31.866782
 20
5.521395
  0
VERTEX
  8
0
 10
31.913185
 20
5.638095
  0
VERTEX
  8
0
 10
31.955840
 20
5.756215
  0
VERTEX
  8
0
 10
31.994702
 20
5.875640
  0
VERTEX
  8
0
 10
32.029730
 20
5.996243
  0
VERTEX
  8
0
 10
32.060890
 20
6.117905
  0
VERTEX
  8
0
 10
32.088147
 20
6.240498
  0
VERTEX
  8
0
 10
32.111477
 20
6.363898
  0
VERTEX
  8
0
 10
32.119020
 20
6.409183
  0
VERTEX
  8
0
 10
32.149475
 20
6.650625
  0
VERTEX
  8
0
 10
32.164680
 20
6.893447
  0
VERTEX
  8
0
 10
32.166402
 20
8.150630
  0
VERTEX
  8
0
 10
32.168405
 20
8.178878
  0
VERTEX
  8
0
 10
32.174372
 20
8.206558
  0
VERTEX
  8
0
 10
32.184182
 20
8.233120
  0
VERTEX
  8
0
 10
32.197645
 20
8.258035
  0
VERTEX
  8
0
 10
32.214485
 20
8.280800
  0
VERTEX
  8
0
 10
32.234367
 20
8.300963
  0
VERTEX
  8
0
 10
32.256895
 20
8.318120
  0
VERTEX
  8
0
 10
32.281618
 20
8.331925
  0
VERTEX
  8
0
 10
32.308042
 20
8.342107
  0
VERTEX
  8
0
 10
32.335637
 20
8.348460
  0
VERTEX
  8
0
 10
32.363853
 20
8.350858
  0
VERTEX
  8
0
 10
32.392125
 20
8.349250
  0
VERTEX
  8
0
 10
32.419888
 20
8.343673
  0
VERTEX
  8
0
 10
32.446585
 20
8.334233
  0
VERTEX
  8
0
 10
32.471683
 20
8.321122
  0
VERTEX
  8
0
 10
32.494683
 20
8.304602
  0
VERTEX
  8
0
 10
32.515122
 20
8.285005
  0
VERTEX
  8
0
 10
32.532592
 20
8.262718
  0
VERTEX
  8
0
 10
32.546743
 20
8.238190
  0
VERTEX
  8
0
 10
32.557295
 20
8.211913
  0
VERTEX
  8
0
 10
32.564033
 20
8.184408
  0
VERTEX
  8
0
 10
32.566825
 20
8.156230
  0
VERTEX
  8
0
 10
32.566902
 20
8.150628
  0
VERTEX
  8
0
 10
32.564898
 20
6.877545
  0
VERTEX
  8
0
 10
32.547820
 20
6.608862
  0
VERTEX
  8
0
 10
32.514133
 20
6.343495
  0
VERTEX
  8
0
 10
32.463583
 20
6.079772
  0
VERTEX
  8
0
 10
32.432327
 20
5.949327
  0
VERTEX
  8
0
 10
32.396855
 20
5.821035
  0
VERTEX
  8
0
 10
32.357532
 20
5.693867
  0
VERTEX
  8
0
 10
32.314397
 20
5.567945
  0
VERTEX
  8
0
 10
32.267488
 20
5.443380
  0
VERTEX
  8
0
 10
32.216845
 20
5.320283
  0
VERTEX
  8
0
 10
32.162517
 20
5.198767
  0
VERTEX
  8
0
 10
32.104555
 20
5.078945
  0
VERTEX
  8
0
 10
32.100947
 20
5.071783
  0
VERTEX
  8
0
 10
31.971888
 20
4.837155
  0
VERTEX
  8
0
 10
31.901212
 20
4.721423
  0
VERTEX
  8
0
 10
31.828943
 20
4.611355
  0
VERTEX
  8
0
 10
31.753352
 20
4.503538
  0
VERTEX
  8
0
 10
31.674515
 20
4.398075
  0
VERTEX
  8
0
 10
31.592500
 20
4.295060
  0
VERTEX
  8
0
 10
31.507388
 20
4.194592
  0
VERTEX
  8
0
 10
31.499150
 20
4.185190
  0
VERTEX
  8
0
 10
31.317530
 20
3.991578
  0
VERTEX
  8
0
 10
29.645545
 20
2.320440
  0
SEQEND
  0
POLYLINE
  8
0
 66
1
  0
VERTEX
  8
0
 10
25.922252
 20
-1.400960
  0
VERTEX
  8
0
 10
25.676247
 20
-1.623228
  0
VERTEX
  8
0
 10
25.419062
 20
-1.833505
  0
VERTEX
  8
0
 10
25.152673
 20
-2.029940
  0
VERTEX
  8
0
 10
25.015007
 20
-2.123807
  0
VERTEX
  8
0
 10
24.734320
 20
-2.299850
  0
VERTEX
  8
0
 10
24.445345
 20
-2.461838
  0
VERTEX
  8
0
 10
24.148505
 20
-2.609087
  0
VERTEX
  8
0
 10
23.996498
 20
-2.677750
  0
VERTEX
  8
0
 10
23.689418
 20
-2.802462
  0
VERTEX
  8
0
 10
23.376645
 20
-2.911637
  0
VERTEX
  8
0
 10
23.057962
 20
-3.005453
  0
VERTEX
  8
0
 10
22.736138
 20
-3.082960
  0
VERTEX
  8
0
 10
22.410135
 20
-3.144365
  0
VERTEX
  8
0
 10
22.081420
 20
-3.189570
  0
VERTEX
  8
0
 10
21.916647
 20
-3.205983
  0
VERTEX
  8
0
 10
21.585442
 20
-3.226540
  0
VERTEX
  8
0
 10
21.421273
 20
-3.230402
  0
VERTEX
  8
0
 10
14.644818
 20
-3.229445
  0
SEQEND
  0
POLYLINE
  8
0
 66
1
  0
VERTEX
  8
0
 10
11.347193
 20
-3.228980
  0
VERTEX
  8
0
 10
11.192452
 20
-3.222740
  0
VERTEX
  8
0
 10
11.037928
 20
-3.212498
  0
VERTEX
  8
0
 10
10.883717
 20
-3.198255
  0
VERTEX
  8
0
 10
10.729930
 20
-3.180023
  0
VERTEX
  8
0
 10
10.576665
 20
-3.157818
  0
VERTEX
  8
0
 10
10.424027
 20
-3.131648
  0
VERTEX
  8
0
 10
10.272118
 20
-3.101535
  0
VERTEX
  8
0
 10
10.121037
 20
-3.067497
  0
VERTEX
  8
0
 10
9.970892
 20
-3.029560
  0
VERTEX
  8
0
 10
9.821777
 20
-2.987747
  0
VERTEX
  8
0
 10
9.673797
 20
-2.942085
  0
VERTEX
  8
0
 10
9.527050
 20
-2.892607
  0
VERTEX
  8
0
 10
9.381630
 20
-2.839348
  0
VERTEX
  8
0
 10
9.237640
 20
-2.782338
  0
VERTEX
  8
0
 10
9.095175
 20
-2.721620
  0
VERTEX
  8
0
 10
8.954330
 20
-2.657233
  0
VERTEX
  8
0
 10
8.815200
 20
-2.589218
  0
VERTEX
  8
0
 10
8.677877
 20
-2.517625
  0
VERTEX
  8
0
 10
8.542452
 20
-2.442497
  0
VERTEX
  8
0
 10
8.409023
 20
-2.363890
  0
VERTEX
  8
0
 10
8.365737
 20
-2.337378
  0
VERTEX
  8
0
 10
8.102467
 20
-2.164545
  0
VERTEX
  8
0
 10
7.853740
 20
-1.982050
  0
VERTEX
  8
0
 10
7.732127
 20
-1.885240
  0
VERTEX
  8
0
 10
7.613055
 20
-1.785325
  0
VERTEX
  8
0
 10
7.496600
 20
-1.682370
  0
VERTEX
  8
0
 10
7.382837
 20
-1.576448
  0
VERTEX
  8
0
 10
7.288988
 20
-1.484797
  0
VERTEX
  8
0
 10
7.193758
 20
-1.392400
  0
VERTEX
  8
0
 10
7.095780
 20
-1.302922
  0
VERTEX
  8
0
 10
6.995140
 20
-1.216445
  0
VERTEX
  8
0
 10
6.891935
 20
-1.133050
  0
VERTEX
  8
0
 10
6.797352
 20
-1.061005
  0
VERTEX
  8
0
 10
6.689552
 20
-0.983842
  0
VERTEX
  8
0
 10
6.579467
 20
-0.909975
  0
VERTEX
  8
0
 10
6.467198
 20
-0.839470
  0
VERTEX
  8
0
 10
6.352845
 20
-0.772397
  0
VERTEX
  8
0
 10
6.236520
 20
-0.708810
  0
VERTEX
  8
0
 10
6.118320
 20
-0.648775
  0
VERTEX
  8
0
 10
5.998362
 20
-0.592340
  0
VERTEX
  8
0
 10
5.876750
 20
-0.539560
  0
VERTEX
  8
0
 10
5.753597
 20
-0.490482
  0
VERTEX
  8
0
 10
5.629015
 20
-0.445155
  0
VERTEX
  8
0
 10
5.503120
 20
-0.403615
  0
VERTEX
  8
0
 10
5.376028
 20
-0.365903
  0
VERTEX
  8
0
 10
5.247850
 20
-0.332052
  0
VERTEX
  8
0
 10
5.118708
 20
-0.302092
  0
VERTEX
  8
0
 10
4.988717
 20
-0.276055
  0
VERTEX
  8
0
 10
4.858000
 20
-0.253962
  0
VERTEX
  8
0
 10
4.726675
 20
-0.235833
  0
VERTEX
  8
0
 10
4.594860
 20
-0.221685
  0
VERTEX
  8
0
 10
4.462680
 20
-0.211530
  0
VERTEX
  8
0
 10
4.330250
 20
-0.205380
  0
VERTEX
  8
0
 10
4.197698
 20
-0.203235
  0
VERTEX
  8
0
 10
4.196358
 20
-0.203235
  0
SEQEND
  0
POLYLINE
  8
0
 66
1
  0
VERTEX
  8
0
 10
0.262570
 20
0.247278
  0
VERTEX
  8
0
 10
4.266450
 20
0.246655
  0
VERTEX
  8
0
 10
4.405530
 20
0.242580
  0
VERTEX
  8
0
 10
4.544437
 20
0.234500
  0
VERTEX
  8
0
 10
4.683052
 20
0.222417
  0
VERTEX
  8
0
 10
4.821262
 20
0.206345
  0
VERTEX
  8
0
 10
4.958952
 20
0.186295
  0
VERTEX
  8
0
 10
5.096005
 20
0.162288
  0
VERTEX
  8
0
 10
5.232310
 20
0.134337
  0
VERTEX
  8
0
 10
5.367755
 20
0.102472
  0
VERTEX
  8
0
 10
5.502223
 20
0.066715
  0
VERTEX
  8
0
 10
5.635605
 20
0.027098
  0
VERTEX
  8
0
 10
5.767790
 20
-0.016348
  0
VERTEX
  8
0
 10
5.898668
 20
-0.063585
  0
VERTEX
  8
0
 10
6.028128
 20
-0.114575
  0
VERTEX
  8
0
 10
6.156067
 20
-0.169272
  0
VERTEX
  8
0
 10
6.282375
 20
-0.227637
  0
VERTEX
  8
0
 10
6.406950
 20
-0.289618
  0
VERTEX
  8
0
 10
6.529685
 20
-0.355165
  0
VERTEX
  8
0
 10
6.650480
 20
-0.424220
  0
VERTEX
  8
0
 10
6.769238
 20
-0.496727
  0
VERTEX
  8
0
 10
6.885853
 20
-0.572630
  0
VERTEX
  8
0
 10
7.000233
 20
-0.651860
  0
VERTEX
  8
0
 10
7.112283
 20
-0.734355
  0
VERTEX
  8
0
 10
7.221908
 20
-0.820043
  0
VERTEX
  8
0
 10
7.329015
 20
-0.908857
  0
VERTEX
  8
0
 10
7.433520
 20
-1.000720
  0
VERTEX
  8
0
 10
7.535335
 20
-1.095557
  0
VERTEX
  8
0
 10
7.603955
 20
-1.162670
  0
VERTEX
  8
0
 10
7.710947
 20
-1.266825
  0
VERTEX
  8
0
 10
7.820697
 20
-1.368067
  0
VERTEX
  8
0
 10
7.933128
 20
-1.466325
  0
VERTEX
  8
0
 10
8.048155
 20
-1.561527
  0
VERTEX
  8
0
 10
8.127805
 20
-1.624478
  0
VERTEX
  8
0
 10
8.247745
 20
-1.714720
  0
VERTEX
  8
0
 10
8.370052
 20
-1.801727
  0
VERTEX
  8
0
 10
8.494640
 20
-1.885435
  0
VERTEX
  8
0
 10
8.605643
 20
-1.956040
  0
VERTEX
  8
0
 10
8.733408
 20
-2.032612
  0
VERTEX
  8
0
 10
8.863190
 20
-2.105715
  0
VERTEX
  8
0
 10
8.994893
 20
-2.175298
  0
VERTEX
  8
0
 10
9.128420
 20
-2.241310
  0
VERTEX
  8
0
 10
9.263678
 20
-2.303702
  0
VERTEX
  8
0
 10
9.400565
 20
-2.362433
  0
VERTEX
  8
0
 10
9.538985
 20
-2.417455
  0
VERTEX
  8
0
 10
9.651977
 20
-2.459213
  0
VERTEX
  8
0
 10
9.929325
 20
-2.550120
  0
VERTEX
  8
0
 10
10.069363
 20
-2.589748
  0
VERTEX
  8
0
 10
10.212515
 20
-2.626460
  0
VERTEX
  8
0
 10
10.356613
 20
-2.659273
  0
VERTEX
  8
0
 10
10.501547
 20
-2.688165
  0
VERTEX
  8
0
 10
10.637630
 20
-2.711595
  0
VERTEX
  8
0
 10
10.786623
 20
-2.733153
  0
VERTEX
  8
0
 10
10.936137
 20
-2.750730
  0
VERTEX
  8
0
 10
11.086065
 20
-2.764323
  0
VERTEX
  8
0
 10
11.215605
 20
-2.772830
  0
VERTEX
  8
0
 10
11.361303
 20
-2.778662
  0
VERTEX
  8
0
 10
14.638495
 20
-2.779065
  0
SEQEND
  0
POLYLINE
  8
0
 66
1
  0
VERTEX
  8
0
 10
21.416600
 20
-2.779898
  0
VERTEX
  8
0
 10
21.571085
 20
-2.776235
  0
VERTEX
  8
0
 10
21.728932
 20
-2.768290
  0
VERTEX
  8
0
 10
21.886527
 20
-2.756343
  0
VERTEX
  8
0
 10
22.043770
 20
-2.740400
  0
VERTEX
  8
0
 10
22.200555
 20
-2.720470
  0
VERTEX
  8
0
 10
22.356785
 20
-2.696570
  0
VERTEX
  8
0
 10
22.512358
 20
-2.668715
  0
VERTEX
  8
0
 10
22.643708
 20
-2.642002
  0
VERTEX
  8
0
 10
22.797655
 20
-2.606825
  0
VERTEX
  8
0
 10
22.950657
 20
-2.567750
  0
VERTEX
  8
0
 10
23.102620
 20
-2.524800
  0
VERTEX
  8
0
 10
23.253442
 20
-2.478005
  0
VERTEX
  8
0
 10
23.403028
 20
-2.427398
  0
VERTEX
  8
0
 10
23.532992
 20
-2.379945
  0
VERTEX
  8
0
 10
23.819440
 20
-2.263455
  0
VERTEX
  8
0
 10
24.100503
 20
-2.132213
  0
VERTEX
  8
0
 10
24.240015
 20
-2.060728
  0
VERTEX
  8
0
 10
24.377652
 20
-1.985697
  0
VERTEX
  8
0
 10
24.513327
 20
-1.907170
  0
VERTEX
  8
0
 10
24.638368
 20
-1.830602
  0
VERTEX
  8
0
 10
24.768315
 20
-1.746815
  0
VERTEX
  8
0
 10
25.022330
 20
-1.568735
  0
VERTEX
  8
0
 10
25.147710
 20
-1.473760
  0
VERTEX
  8
0
 10
25.270627
 20
-1.375620
  0
VERTEX
  8
0
 10
25.391002
 20
-1.274377
  0
VERTEX
  8
0
 10
25.500077
 20
-1.177968
  0
VERTEX
  8
0
 10
25.613310
 20
-1.073022
  0
VERTEX
  8
0
 10
29.638313
 20
2.950122
  0
SEQEND
  0
POLYLINE
  8
0
 66
1
  0
VERTEX
  8
0
 10
30.997475
 20
4.308655
  0
VERTEX
  8
0
 10
31.163737
 20
4.485995
  0
VERTEX
  8
0
 10
31.244257
 20
4.580940
  0
VERTEX
  8
0
 10
31.321680
 20
4.678427
  0
VERTEX
  8
0
 10
31.395917
 20
4.778358
  0
VERTEX
  8
0
 10
31.466900
 20
4.880630
  0
VERTEX
  8
0
 10
31.534553
 20
4.985132
  0
VERTEX
  8
0
 10
31.598800
 20
5.091762
  0
VERTEX
  8
0
 10
31.601328
 20
5.096120
  0
VERTEX
  8
0
 10
31.661822
 20
5.205262
  0
VERTEX
  8
0
 10
31.718778
 20
5.316293
  0
VERTEX
  8
0
 10
31.772137
 20
5.429095
  0
VERTEX
  8
0
 10
31.821842
 20
5.543555
  0
VERTEX
  8
0
 10
31.867845
 20
5.659553
  0
VERTEX
  8
0
 10
31.910095
 20
5.776967
  0
VERTEX
  8
0
 10
31.948550
 20
5.895680
  0
VERTEX
  8
0
 10
31.983170
 20
6.015568
  0
VERTEX
  8
0
 10
32.013920
 20
6.136505
  0
VERTEX
  8
0
 10
32.040768
 20
6.258370
  0
VERTEX
  8
0
 10
32.063685
 20
6.381032
  0
VERTEX
  8
0
 10
32.069510
 20
6.416225
  0
VERTEX
  8
0
 10
32.099677
 20
6.655475
  0
VERTEX
  8
0
 10
32.114680
 20
6.895200
  0
VERTEX
  8
0
 10
32.116402
 20
8.150673
  0
VERTEX
  8
0
 10
32.118410
 20
8.182270
  0
VERTEX
  8
0
 10
32.124392
 20
8.213360
  0
VERTEX
  8
0
 10
32.134253
 20
8.243448
  0
VERTEX
  8
0
 10
32.147832
 20
8.272047
  0
VERTEX
  8
0
 10
32.164915
 20
8.298705
  0
VERTEX
  8
0
 10
32.185225
 20
8.322992
  0
VERTEX
  8
0
 10
32.208442
 20
8.344520
  0
VERTEX
  8
0
 10
32.234190
 20
8.362945
  0
VERTEX
  8
0
 10
32.262057
 20
8.377970
  0
VERTEX
  8
0
 10
32.291600
 20
8.389357
  0
VERTEX
  8
0
 10
32.322342
 20
8.396923
  0
VERTEX
  8
0
 10
32.353797
 20
8.400548
  0
VERTEX
  8
0
 10
32.385455
 20
8.400170
  0
VERTEX
  8
0
 10
32.416812
 20
8.395800
  0
VERTEX
  8
0
 10
32.447367
 20
8.387503
  0
VERTEX
  8
0
 10
32.476630
 20
8.375415
  0
VERTEX
  8
0
 10
32.504132
 20
8.359730
  0
VERTEX
  8
0
 10
32.529435
 20
8.340697
  0
VERTEX
  8
0
 10
32.552130
 20
8.318623
  0
VERTEX
  8
0
 10
32.571858
 20
8.293860
  0
VERTEX
  8
0
 10
32.588302
 20
8.266803
  0
VERTEX
  8
0
 10
32.601195
 20
8.237887
  0
VERTEX
  8
0
 10
32.610337
 20
8.207575
  0
VERTEX
  8
0
 10
32.615578
 20
8.176350
  0
VERTEX
  8
0
 10
32.616903
 20
8.150633
  0
VERTEX
  8
0
 10
32.614888
 20
6.876615
  0
VERTEX
  8
0
 10
32.608595
 20
6.744853
  0
VERTEX
  8
0
 10
32.598300
 20
6.613340
  0
VERTEX
  8
0
 10
32.584013
 20
6.482202
  0
VERTEX
  8
0
 10
32.565742
 20
6.351558
  0
VERTEX
  8
0
 10
32.543512
 20
6.221530
  0
VERTEX
  8
0
 10
32.517337
 20
6.092240
  0
VERTEX
  8
0
 10
32.487245
 20
5.963802
  0
VERTEX
  8
0
 10
32.453263
 20
5.836342
  0
VERTEX
  8
0
 10
32.415420
 20
5.709973
  0
VERTEX
  8
0
 10
32.373753
 20
5.584810
  0
VERTEX
  8
0
 10
32.328300
 20
5.460975
  0
VERTEX
  8
0
 10
32.279105
 20
5.338578
  0
VERTEX
  8
0
 10
32.226210
 20
5.217733
  0
VERTEX
  8
0
 10
32.169668
 20
5.098550
  0
VERTEX
  8
0
 10
32.109527
 20
4.981142
  0
VERTEX
  8
0
 10
32.045845
 20
4.865617
  0
VERTEX
  8
0
 10
31.978683
 20
4.752083
  0
VERTEX
  8
0
 10
31.908098
 20
4.640640
  0
VERTEX
  8
0
 10
31.834157
 20
4.531397
  0
VERTEX
  8
0
 10
31.756930
 20
4.424453
  0
VERTEX
  8
0
 10
31.676488
 20
4.319903
  0
VERTEX
  8
0
 10
31.592903
 20
4.217848
  0
VERTEX
  8
0
 10
31.506258
 20
4.118383
  0
VERTEX
  8
0
 10
31.416625
 20
4.021595
  0
VERTEX
  8
0
 10
31.352895
 20
3.956233
  0
VERTEX
  8
0
 10
29.645437
 20
2.249672
  0
SEQEND
  0
POLYLINE
  8
0
 66
1
  0
VERTEX
  8
0
 10
25.955683
 20
-1.438143
  0
VERTEX
  8
0
 10
25.707947
 20
-1.661892
  0
VERTEX
  8
0
 10
25.448912
 20
-1.873615
  0
VERTEX
  8
0
 10
25.180760
 20
-2.071305
  0
VERTEX
  8
0
 10
25.041495
 20
-2.166215
  0
VERTEX
  8
0
 10
24.758890
 20
-2.343393
  0
VERTEX
  8
0
 10
24.467788
 20
-2.506515
  0
VERTEX
  8
0
 10
24.169825
 20
-2.654307
  0
VERTEX
  8
0
 10
24.020275
 20
-2.721705
  0
VERTEX
  8
0
 10
23.869120
 20
-2.785427
  0
VERTEX
  8
0
 10
23.716455
 20
-2.845435
  0
VERTEX
  8
0
 10
23.562368
 20
-2.901692
  0
VERTEX
  8
0
 10
23.406950
 20
-2.954165
  0
VERTEX
  8
0
 10
23.250295
 20
-3.002823
  0
VERTEX
  8
0
 10
23.092500
 20
-3.047635
  0
VERTEX
  8
0
 10
22.933655
 20
-3.088575
  0
VERTEX
  8
0
 10
22.773857
 20
-3.125620
  0
VERTEX
  8
0
 10
22.613200
 20
-3.158748
  0
VERTEX
  8
0
 10
22.451783
 20
-3.187937
  0
VERTEX
  8
0
 10
22.289697
 20
-3.213173
  0
VERTEX
  8
0
 10
22.127047
 20
-3.234437
  0
VERTEX
  8
0
 10
21.963922
 20
-3.251717
  0
VERTEX
  8
0
 10
21.800428
 20
-3.265007
  0
VERTEX
  8
0
 10
21.636653
 20
-3.274293
  0
VERTEX
  8
0
 10
21.472703
 20
-3.279573
  0
VERTEX
  8
0
 10
21.421647
 20
-3.280397
  0
VERTEX
  8
0
 10
14.644955
 20
-3.279430
  0
SEQEND
  0
POLYLINE
  8
0
 66
1
  0
VERTEX
  8
0
 10
11.346037
 20
-3.278960
  0
VERTEX
  8
0
 10
11.190675
 20
-3.272720
  0
VERTEX
  8
0
 10
11.035525
 20
-3.262478
  0
VERTEX
  8
0
 10
10.880690
 20
-3.248232
  0
VERTEX
  8
0
 10
10.726275
 20
-3.230002
  0
VERTEX
  8
0
 10
10.572380
 20
-3.207793
  0
VERTEX
  8
0
 10
10.419110
 20
-3.181623
  0
VERTEX
  8
0
 10
10.266565
 20
-3.151508
  0
VERTEX
  8
0
 10
10.114847
 20
-3.117468
  0
VERTEX
  8
0
 10
9.964060
 20
-3.079528
  0
VERTEX
  8
0
 10
9.814300
 20
-3.037710
  0
VERTEX
  8
0
 10
9.665670
 20
-2.992043
  0
VERTEX
  8
0
 10
9.518265
 20
-2.942557
  0
VERTEX
  8
0
 10
9.372188
 20
-2.889288
  0
VERTEX
  8
0
 10
9.227533
 20
-2.832267
  0
VERTEX
  8
0
 10
9.084395
 20
-2.771535
  0
VERTEX
  8
0
 10
8.942873
 20
-2.707130
  0
VERTEX
  8
0
 10
8.803057
 20
-2.639098
  0
VERTEX
  8
0
 10
8.665043
 20
-2.567480
  0
VERTEX
  8
0
 10
8.528923
 20
-2.492328
  0
VERTEX
  8
0
 10
8.394787
 20
-2.413690
  0
VERTEX
  8
0
 10
8.337993
 20
-2.378973
  0
VERTEX
  8
0
 10
8.072942
 20
-2.204897
  0
VERTEX
  8
0
 10
7.823060
 20
-2.021530
  0
VERTEX
  8
0
 10
7.700940
 20
-1.924325
  0
VERTEX
  8
0
 10
7.581358
 20
-1.824015
  0
VERTEX
  8
0
 10
7.464392
 20
-1.720665
  0
VERTEX
  8
0
 10
7.350123
 20
-1.614343
  0
VERTEX
  8
0
 10
7.253615
 20
-1.520140
  0
VERTEX
  8
0
 10
7.158923
 20
-1.428278
  0
VERTEX
  8
0
 10
7.061480
 20
-1.339338
  0
VERTEX
  8
0
 10
6.961378
 20
-1.253397
  0
VERTEX
  8
0
 10
6.858713
 20
-1.170543
  0
VERTEX
  8
0
 10
6.767353
 20
-1.101005
  0
VERTEX
  8
0
 10
6.660155
 20
-1.024302
  0
VERTEX
  8
0
 10
6.550675
 20
-0.950895
  0
VERTEX
  8
0
 10
6.439012
 20
-0.880853
  0
VERTEX
  8
0
 10
6.325270
 20
-0.814240
  0
VERTEX
  8
0
 10
6.209553
 20
-0.751120
  0
VERTEX
  8
0
 10
6.091970
 20
-0.691547
  0
VERTEX
  8
0
 10
5.972627
 20
-0.635580
  0
VERTEX
  8
0
 10
5.851640
 20
-0.583272
  0
VERTEX
  8
0
 10
5.729115
 20
-0.534667
  0
VERTEX
  8
0
 10
5.605168
 20
-0.489812
  0
VERTEX
  8
0
 10
5.479915
 20
-0.448750
  0
VERTEX
  8
0
 10
5.353470
 20
-0.411517
  0
VERTEX
  8
0
 10
5.225953
 20
-0.378148
  0
VERTEX
  8
0
 10
5.097475
 20
-0.348672
  0
VERTEX
  8
0
 10
4.968163
 20
-0.323122
  0
VERTEX
  8
0
 10
4.838133
 20
-0.301517
  0
VERTEX
  8
0
 10
4.707508
 20
-0.283878
  0
VERTEX
  8
0
 10
4.576403
 20
-0.270220
  0
VERTEX
  8
0
 10
4.444945
 20
-0.260557
  0
VERTEX
  8
0
 10
4.313255
 20
-0.254900
  0
VERTEX
  8
0
 10
4.196318
 20
-0.253235
  0
VERTEX
  8
0
 10
0.262568
 20
-0.253235
  0
VERTEX
  8
0
 10
0.261047
 20
-0.254742
  0
VERTEX
  8
0
 10
0.232903
 20
-0.279805
  0
VERTEX
  8
0
 10
0.202258
 20
-0.301737
  0
VERTEX
  8
0
 10
0.169455
 20
-0.320290
  0
VERTEX
  8
0
 10
0.134870
 20
-0.335255
  0
VERTEX
  8
0
 10
0.098890
 20
-0.346463
  0
VERTEX
  8
0
 10
0.061922
 20
-0.353787
  0
VERTEX
  8
0
 10
0.024387
 20
-0.357145
  0
VERTEX
  8
0
 10
-0.013290
 20
-0.356498
  0
VERTEX
  8
0
 10
-0.050688
 20
-0.351853
  0
VERTEX
  8
0
 10
-0.087383
 20
-0.343265
  0
VERTEX
  8
0
 10
-0.122955
 20
-0.330827
  0
VERTEX
  8
0
 10
-0.157007
 20
-0.314682
  0
VERTEX
  8
0
 10
-0.189153
 20
-0.295015
  0
VERTEX
  8
0
 10
-0.219028
 20
-0.272045
  0
VERTEX
  8
0
 10
-0.246295
 20
-0.246032
  0
VERTEX
  8
0
 10
-0.270645
 20
-0.217270
  0
VERTEX
  8
0
 10
-0.291805
 20
-0.186087
  0
VERTEX
  8
0
 10
-0.309532
 20
-0.152833
  0
VERTEX
  8
0
 10
-0.323630
 20
-0.117883
  0
VERTEX
  8
0
 10
-0.333935
 20
-0.081635
  0
VERTEX
  8
0
 10
-0.340335
 20
-0.044498
  0
VERTEX
  8
0
 10
-0.342753
 20
-0.006890
  0
VERTEX
  8
0
 10
-0.341165
 20
0.030763
  0
VERTEX
  8
0
 10
-0.335587
 20
0.068032
  0
VERTEX
  8
0
 10
-0.326085
 20
0.104500
  0
VERTEX
  8
0
 10
-0.312765
 20
0.139753
  0
VERTEX
  8
0
 10
-0.295775
 20
0.173390
  0
VERTEX
  8
0
 10
-0.275310
 20
0.205033
  0
VERTEX
  8
0
 10
-0.251600
 20
0.234325
  0
VERTEX
  8
0
 10
-0.224915
 20
0.260935
  0
VERTEX
  8
0
 10
-0.195555
 20
0.284560
  0
VERTEX
  8
0
 10
-0.163850
 20
0.304932
  0
VERTEX
  8
0
 10
-0.130165
 20
0.321825
  0
VERTEX
  8
0
 10
-0.094875
 20
0.335045
  0
VERTEX
  8
0
 10
-0.058380
 20
0.344442
  0
VERTEX
  8
0
 10
-0.021093
 20
0.349910
  0
VERTEX
  8
0
 10
0.016563
 20
0.351390
  0
VERTEX
  8
0
 10
0.054163
 20
0.348863
  0
VERTEX
  8
0
 10
0.091283
 20
0.342357
  0
VERTEX
  8
0
 10
0.127500
 20
0.331945
  0
VERTEX
  8
0
 10
0.162408
 20
0.317748
  0
VERTEX
  8
0
 10
0.195612
 20
0.299925
  0
VERTEX
  8
0
 10
0.226735
 20
0.278675
  0
VERTEX
  8
0
 10
0.255425
 20
0.254242
  0
VERTEX
  8
0
 10
0.262570
 20
0.247278
  0
SEQEND
  0
LINE
  8
0
 10
14.638578
 20
-3.229445
 11
11.347193
 21
-3.228980
  0
LINE
  8
0
 10
14.638440
 20
-3.279430
 11
11.346037
 21
-3.278960
  0
LINE
  8
0
 10
14.644910
 20
-2.829067
 11
21.417127
 21
-2.829900
  0
LINE
  8
0
 10
14.644885
 20
-2.779065
 11
21.416600
 21
-2.779898
  0
LINE
  8
0
 10
29.637940
 20
2.242180
 11
25.955683
 21
-1.438143
  0
LINE
  8
0
 10
29.638278
 20
2.313178
 11
25.922252
 21
-1.400960
  0
LINE
  8
0
 10
29.644832
 20
2.885945
 11
31.033337
 21
4.273810
  0
LINE
  8
0
 10
29.644955
 20
2.956760
 11
30.997475
 21
4.308655
  0
ENDSEC
   0
EOF
