  0
SECTION
  2
HEADER
999
 Generated by InCAM
999
  Job : semicon, Step : org
  9
$FILLMODE
 70
1
  9
$MEASUREMENT
 70
1
  0
ENDSEC
   0
SECTION
   2
TABLES
  0
TABLE
2
LAYER
 70
1
  0
LAYER
  2
0
 70
64
 62
1
  6
CONTINUOUS
  0
ENDTAB
  0
ENDSEC
  0
SECTION
2
BLOCKS
  0
BLOCK
  8
0
  2
PAD_R1
 70
64
 10
0.0
 20
0.0
  0
POLYLINE
  8
0
 10
0.0
 20
0.0
 40
0.5
 41
0.5
 66
1
 70
1
  0
VERTEX
  8
0
 10
0.25
 20
0.0
 42
1.0
  0
VERTEX
  8
0
 10
-0.25
 20
0.0
 42
1.0
  0
SEQEND
  0
ENDBLK
  0
BLOCK
  8
0
  2
PAD_S1
 70
64
 10
0.0
 20
0.0
  0
POLYLINE
  8
0
 10
0.0
 20
0.0
 40
1.0
 41
1.0
 66
1
  0
VERTEX
  8
0
 10
-0.5
 20
0
  0
VERTEX
  8
0
 10
0.5
 20
0
  0
SEQEND
  0
ENDBLK
  0
ENDSEC
  0
SECTION
  2
ENTITIES
  0
ARC
  8
0
 10
0.011625
 20
-0.003015
 40
0.369405
 50
177.945325
 51
179.993898
  0
POLYLINE
  8
0
 66
1
  0
VERTEX
  8
0
 10
0.011625
 20
0.366430
 42
-0.194858
  0
VERTEX
  8
0
 10
0.268713
 20
0.262290
  0
VERTEX
  8
0
 10
4.197290
 20
0.262290
 42
-0.003577
  0
VERTEX
  8
0
 10
4.200168
 20
0.262275
  0
VERTEX
  8
0
 10
4.259873
 20
0.261780
 42
-0.006166
  0
VERTEX
  8
0
 10
4.265982
 20
0.261678
  0
VERTEX
  8
0
 10
4.401110
 20
0.257868
 42
-0.008886
  0
VERTEX
  8
0
 10
4.410238
 20
0.257452
  0
VERTEX
  8
0
 10
4.417260
 20
0.257028
  0
VERTEX
  8
0
 10
4.417940
 20
0.256987
  0
VERTEX
  8
0
 10
4.553068
 20
0.248860
 42
-0.007826
  0
VERTEX
  8
0
 10
4.561013
 20
0.248262
  0
VERTEX
  8
0
 10
4.695405
 20
0.236368
 42
-0.008703
  0
VERTEX
  8
0
 10
4.704298
 20
0.235430
  0
VERTEX
  8
0
 10
4.837515
 20
0.219562
 42
-0.0081
  0
VERTEX
  8
0
 10
4.845710
 20
0.218465
  0
VERTEX
  8
0
 10
4.978987
 20
0.198485
 42
-0.007951
  0
VERTEX
  8
0
 10
4.986990
 20
0.197178
  0
VERTEX
  8
0
 10
5.120340
 20
0.173302
 42
-0.008464
  0
VERTEX
  8
0
 10
5.128852
 20
0.171635
  0
VERTEX
  8
0
 10
5.259725
 20
0.144003
 42
-0.008765
  0
VERTEX
  8
0
 10
5.268510
 20
0.142028
  0
VERTEX
  8
0
 10
5.400335
 20
0.110022
 42
-0.00833
  0
VERTEX
  8
0
 10
5.408582
 20
0.107880
  0
VERTEX
  8
0
 10
5.536962
 20
0.072913
 42
-0.009163
  0
VERTEX
  8
0
 10
5.546035
 20
0.070307
  0
VERTEX
  8
0
 10
5.675320
 20
0.030685
 42
-0.008393
  0
VERTEX
  8
0
 10
5.683500
 20
0.028032
  0
VERTEX
  8
0
 10
5.810105
 20
-0.014837
 42
-0.008108
  0
VERTEX
  8
0
 10
5.817913
 20
-0.017590
  0
VERTEX
  8
0
 10
5.944468
 20
-0.064415
 42
-0.008737
  0
VERTEX
  8
0
 10
5.952833
 20
-0.067655
  0
VERTEX
  8
0
 10
6.078310
 20
-0.118707
 42
-0.007983
  0
VERTEX
  8
0
 10
6.085802
 20
-0.121890
  0
VERTEX
  8
0
 10
6.209240
 20
-0.176275
 42
-0.008545
  0
VERTEX
  8
0
 10
6.217198
 20
-0.179940
  0
VERTEX
  8
0
 10
6.338303
 20
-0.237597
 42
-0.008261
  0
VERTEX
  8
0
 10
6.345872
 20
-0.241342
  0
VERTEX
  8
0
 10
6.465553
 20
-0.302950
 42
-0.007988
  0
VERTEX
  8
0
 10
6.472750
 20
-0.306768
  0
VERTEX
  8
0
 10
6.590747
 20
-0.371702
 42
-0.008526
  0
VERTEX
  8
0
 10
6.598348
 20
-0.376022
  0
VERTEX
  8
0
 10
6.714932
 20
-0.444858
 42
-0.009077
  0
VERTEX
  8
0
 10
6.722900
 20
-0.449752
  0
VERTEX
  8
0
 10
6.836295
 20
-0.521570
 42
-0.0075
  0
VERTEX
  8
0
 10
6.842663
 20
-0.525733
  0
VERTEX
  8
0
 10
6.953857
 20
-0.600448
 42
-0.008896
  0
VERTEX
  8
0
 10
6.961380
 20
-0.605657
  0
VERTEX
  8
0
 10
7.071363
 20
-0.684652
 42
-0.008036
  0
VERTEX
  8
0
 10
7.077953
 20
-0.689542
  0
VERTEX
  8
0
 10
7.184807
 20
-0.771195
 42
-0.007931
  0
VERTEX
  8
0
 10
7.191170
 20
-0.776185
  0
VERTEX
  8
0
 10
7.296328
 20
-0.861275
 42
-0.008715
  0
VERTEX
  8
0
 10
7.303192
 20
-0.867025
  0
VERTEX
  8
0
 10
7.405208
 20
-0.954900
 42
-0.008442
  0
VERTEX
  8
0
 10
7.411670
 20
-0.960653
  0
VERTEX
  8
0
 10
7.510318
 20
-1.051015
 42
-0.008566
  0
VERTEX
  8
0
 10
7.516718
 20
-1.057030
  0
VERTEX
  8
0
 10
7.613745
 20
-1.151265
  0
VERTEX
  8
0
 10
7.615053
 20
-1.152545
  0
VERTEX
  8
0
 10
7.697485
 20
-1.233253
  0
VERTEX
  8
0
 10
7.803628
 20
-1.332595
  0
VERTEX
  8
0
 10
7.912045
 20
-1.428670
  0
VERTEX
  8
0
 10
8.023347
 20
-1.522028
  0
VERTEX
  8
0
 10
8.136722
 20
-1.612390
  0
VERTEX
  8
0
 10
8.252612
 20
-1.699670
  0
VERTEX
  8
0
 10
8.370680
 20
-1.784040
  0
VERTEX
  8
0
 10
8.491025
 20
-1.865155
  0
VERTEX
  8
0
 10
8.613535
 20
-1.943270
  0
VERTEX
  8
0
 10
8.737550
 20
-2.017730
  0
VERTEX
  8
0
 10
8.864102
 20
-2.089005
  0
VERTEX
  8
0
 10
8.992555
 20
-2.157240
  0
VERTEX
  8
0
 10
9.122302
 20
-2.221870
  0
VERTEX
  8
0
 10
9.253785
 20
-2.282890
  0
VERTEX
  8
0
 10
9.386815
 20
-2.340560
  0
VERTEX
  8
0
 10
9.521590
 20
-2.394617
  0
VERTEX
  8
0
 10
9.657665
 20
-2.445310
  0
VERTEX
  8
0
 10
9.794792
 20
-2.492310
  0
VERTEX
  8
0
 10
9.933110
 20
-2.535595
  0
VERTEX
  8
0
 10
10.072938
 20
-2.575168
  0
VERTEX
  8
0
 10
10.213498
 20
-2.611275
  0
VERTEX
  8
0
 10
10.354970
 20
-2.643495
  0
VERTEX
  8
0
 10
10.497253
 20
-2.672098
  0
VERTEX
  8
0
 10
10.639995
 20
-2.696772
  0
VERTEX
  8
0
 10
10.783547
 20
-2.717625
  0
VERTEX
  8
0
 10
10.927717
 20
-2.734830
  0
VERTEX
  8
0
 10
11.072242
 20
-2.748168
  0
VERTEX
  8
0
 10
11.217073
 20
-2.757872
  0
VERTEX
  8
0
 10
11.361852
 20
-2.763673
  0
VERTEX
  8
0
 10
11.508517
 20
-2.765390
  0
VERTEX
  8
0
 10
14.638585
 20
-2.765390
  0
SEQEND
  0
POLYLINE
  8
0
 66
1
  0
VERTEX
  8
0
 10
21.339590
 20
-2.765390
  0
VERTEX
  8
0
 10
21.416080
 20
-2.764900
  0
VERTEX
  8
0
 10
21.570953
 20
-2.761230
  0
VERTEX
  8
0
 10
21.724730
 20
-2.753442
  0
VERTEX
  8
0
 10
21.878875
 20
-2.741980
  0
VERTEX
  8
0
 10
22.032107
 20
-2.726657
  0
VERTEX
  8
0
 10
22.185147
 20
-2.707405
  0
VERTEX
  8
0
 10
22.337588
 20
-2.684515
  0
VERTEX
  8
0
 10
22.489670
 20
-2.657705
  0
VERTEX
  8
0
 10
22.640877
 20
-2.627270
  0
VERTEX
  8
0
 10
22.791220
 20
-2.592913
  0
VERTEX
  8
0
 10
22.940497
 20
-2.554985
  0
VERTEX
  8
0
 10
23.088980
 20
-2.513050
  0
VERTEX
  8
0
 10
23.236387
 20
-2.467730
  0
VERTEX
  8
0
 10
23.382760
 20
-2.418532
  0
VERTEX
  8
0
 10
23.527595
 20
-2.365955
  0
VERTEX
  8
0
 10
23.671130
 20
-2.309417
  0
VERTEX
  8
0
 10
23.813347
 20
-2.249755
  0
VERTEX
  8
0
 10
23.953708
 20
-2.186265
  0
VERTEX
  8
0
 10
24.092958
 20
-2.119203
  0
VERTEX
  8
0
 10
24.230075
 20
-2.049060
  0
VERTEX
  8
0
 10
24.365433
 20
-1.975292
  0
VERTEX
  8
0
 10
24.499147
 20
-1.898087
  0
VERTEX
  8
0
 10
24.630668
 20
-1.817713
  0
VERTEX
  8
0
 10
24.760300
 20
-1.734133
  0
VERTEX
  8
0
 10
24.887463
 20
-1.647333
  0
VERTEX
  8
0
 10
25.012837
 20
-1.557080
  0
VERTEX
  8
0
 10
25.135775
 20
-1.464087
  0
VERTEX
  8
0
 10
25.256363
 20
-1.367862
  0
VERTEX
  8
0
 10
25.374435
 20
-1.268777
  0
VERTEX
  8
0
 10
25.490302
 20
-1.166567
  0
VERTEX
  8
0
 10
25.603102
 20
-1.062035
  0
VERTEX
  8
0
 10
25.714597
 20
-0.953000
  0
VERTEX
  8
0
 10
29.280013
 20
2.612415
  0
SEQEND
  0
POLYLINE
  8
0
 66
1
  0
VERTEX
  8
0
 10
30.982563
 20
4.314965
  0
VERTEX
  8
0
 10
30.983293
 20
4.315697
  0
VERTEX
  8
0
 10
30.987073
 20
4.319475
  0
VERTEX
  8
0
 10
31.071487
 20
4.406788
  0
VERTEX
  8
0
 10
31.151857
 20
4.495217
  0
VERTEX
  8
0
 10
31.229195
 20
4.586315
  0
VERTEX
  8
0
 10
31.304230
 20
4.680165
  0
VERTEX
  8
0
 10
31.375795
 20
4.775667
  0
VERTEX
  8
0
 10
31.444450
 20
4.873778
  0
VERTEX
  8
0
 10
31.509963
 20
4.973707
  0
VERTEX
  8
0
 10
31.572093
 20
5.075678
  0
VERTEX
  8
0
 10
31.631475
 20
5.180130
  0
VERTEX
  8
0
 10
31.687497
 20
5.285770
  0
VERTEX
  8
0
 10
31.739880
 20
5.393142
  0
VERTEX
  8
0
 10
31.789060
 20
5.502195
  0
VERTEX
  8
0
 10
31.834595
 20
5.612712
  0
VERTEX
  8
0
 10
31.876910
 20
5.724920
  0
VERTEX
  8
0
 10
31.915350
 20
5.837865
  0
VERTEX
  8
0
 10
31.950582
 20
5.952605
  0
VERTEX
  8
0
 10
31.982145
 20
6.067938
  0
VERTEX
  8
0
 10
32.009923
 20
6.184275
  0
VERTEX
  8
0
 10
32.034168
 20
6.301465
  0
VERTEX
  8
0
 10
32.054810
 20
6.419372
  0
VERTEX
  8
0
 10
32.071440
 20
6.537917
  0
VERTEX
  8
0
 10
32.084755
 20
6.656828
  0
VERTEX
  8
0
 10
32.094005
 20
6.776105
  0
VERTEX
  8
0
 10
32.099697
 20
6.895397
  0
VERTEX
  8
0
 10
32.101388
 20
7.017182
  0
VERTEX
  8
0
 10
32.101388
 20
8.014283
 42
-0.003548
  0
VERTEX
  8
0
 10
32.101402
 20
8.017103
  0
VERTEX
  8
0
 10
32.101402
 20
8.150633
 42
-0.410473
  0
VERTEX
  8
0
 10
32.363253
 20
8.415860
  0
SEQEND
  0
POLYLINE
  8
0
 66
1
  0
VERTEX
  8
0
 10
32.631903
 20
8.150633
  0
VERTEX
  8
0
 10
32.631903
 20
8.017103
 42
-0.003541
  0
VERTEX
  8
0
 10
32.631918
 20
8.014283
  0
VERTEX
  8
0
 10
32.631918
 20
7.015845
 42
-0.004575
  0
VERTEX
  8
0
 10
32.631892
 20
7.011617
  0
VERTEX
  8
0
 10
32.630115
 20
6.883603
 42
-0.009608
  0
VERTEX
  8
0
 10
32.629793
 20
6.873683
  0
VERTEX
  8
0
 10
32.623753
 20
6.747085
 42
-0.007935
  0
VERTEX
  8
0
 10
32.623250
 20
6.739015
  0
VERTEX
  8
0
 10
32.613413
 20
6.612158
 42
-0.009642
  0
VERTEX
  8
0
 10
32.612490
 20
6.602238
  0
VERTEX
  8
0
 10
32.598267
 20
6.475238
 42
-0.007926
  0
VERTEX
  8
0
 10
32.597245
 20
6.467218
  0
VERTEX
  8
0
 10
32.579693
 20
6.342090
 42
-0.009613
  0
VERTEX
  8
0
 10
32.578162
 20
6.332273
  0
VERTEX
  8
0
 10
32.556063
 20
6.206033
 42
-0.008946
  0
VERTEX
  8
0
 10
32.554318
 20
6.196998
  0
VERTEX
  8
0
 10
32.528775
 20
6.073537
 42
-0.008575
  0
VERTEX
  8
0
 10
32.526875
 20
6.064950
  0
VERTEX
  8
0
 10
32.497270
 20
5.940960
 42
-0.008915
  0
VERTEX
  8
0
 10
32.495002
 20
5.932075
  0
VERTEX
  8
0
 10
32.461220
 20
5.808630
 42
-0.008291
  0
VERTEX
  8
0
 10
32.458850
 20
5.800485
  0
VERTEX
  8
0
 10
32.421350
 20
5.678357
 42
-0.008571
  0
VERTEX
  8
0
 10
32.418630
 20
5.669998
  0
VERTEX
  8
0
 10
32.378033
 20
5.550710
 42
-0.009264
  0
VERTEX
  8
0
 10
32.374825
 20
5.541715
  0
VERTEX
  8
0
 10
32.329613
 20
5.421828
 42
-0.008818
  0
VERTEX
  8
0
 10
32.326273
 20
5.413407
  0
VERTEX
  8
0
 10
32.278272
 20
5.296907
 42
-0.009381
  0
VERTEX
  8
0
 10
32.274455
 20
5.288012
  0
VERTEX
  8
0
 10
32.221877
 20
5.171428
 42
-0.008665
  0
VERTEX
  8
0
 10
32.218085
 20
5.163380
  0
VERTEX
  8
0
 10
32.162640
 20
5.049730
 42
-0.009345
  0
VERTEX
  8
0
 10
32.158280
 20
5.041137
  0
VERTEX
  8
0
 10
32.098645
 20
4.928690
 42
-0.008253
  0
VERTEX
  8
0
 10
32.094592
 20
4.921288
  0
VERTEX
  8
0
 10
32.031345
 20
4.810035
 42
-0.008784
  0
VERTEX
  8
0
 10
32.026753
 20
4.802268
  0
VERTEX
  8
0
 10
31.961092
 20
4.694505
 42
-0.00921
  0
VERTEX
  8
0
 10
31.956035
 20
4.686480
  0
VERTEX
  8
0
 10
31.885957
 20
4.579585
  0
VERTEX
  8
0
 10
31.885295
 20
4.578580
 42
-0.006946
  0
VERTEX
  8
0
 10
31.881363
 20
4.572805
  0
VERTEX
  8
0
 10
31.808020
 20
4.467995
 42
-0.009193
  0
VERTEX
  8
0
 10
31.802455
 20
4.460335
  0
VERTEX
  8
0
 10
31.726852
 20
4.359450
 42
-0.009045
  0
VERTEX
  8
0
 10
31.721162
 20
4.352070
  0
VERTEX
  8
0
 10
31.641153
 20
4.251995
 42
-0.008331
  0
VERTEX
  8
0
 10
31.635717
 20
4.245415
  0
VERTEX
  8
0
 10
31.553815
 20
4.148943
 42
-0.009349
  0
VERTEX
  8
0
 10
31.547463
 20
4.141693
  0
VERTEX
  8
0
 10
31.461357
 20
4.046952
 42
-0.008578
  0
VERTEX
  8
0
 10
31.455333
 20
4.040540
  0
VERTEX
  8
0
 10
31.367407
 20
3.949597
 42
-0.005479
  0
VERTEX
  8
0
 10
31.363682
 20
3.945800
  0
VERTEX
  8
0
 10
31.358348
 20
3.940468
  0
VERTEX
  8
0
 10
31.357702
 20
3.939825
  0
VERTEX
  8
0
 10
29.648455
 20
2.230577
  0
SEQEND
  0
POLYLINE
  8
0
 66
1
  0
VERTEX
  8
0
 10
26.089057
 20
-1.328820
 42
-0.004037
  0
VERTEX
  8
0
 10
26.086548
 20
-1.331308
  0
VERTEX
  8
0
 10
25.971595
 20
-1.443723
 42
-0.007193
  0
VERTEX
  8
0
 10
25.966327
 20
-1.448740
  0
VERTEX
  8
0
 10
25.849210
 20
-1.557275
 42
-0.007419
  0
VERTEX
  8
0
 10
25.843645
 20
-1.562328
  0
VERTEX
  8
0
 10
25.722995
 20
-1.668755
 42
-0.00742
  0
VERTEX
  8
0
 10
25.717288
 20
-1.673647
  0
VERTEX
  8
0
 10
25.595540
 20
-1.775815
 42
-0.00736
  0
VERTEX
  8
0
 10
25.589780
 20
-1.780545
  0
VERTEX
  8
0
 10
25.464050
 20
-1.880875
 42
-0.007679
  0
VERTEX
  8
0
 10
25.457875
 20
-1.885655
  0
VERTEX
  8
0
 10
25.330962
 20
-1.981658
 42
-0.006992
  0
VERTEX
  8
0
 10
25.325300
 20
-1.985847
  0
VERTEX
  8
0
 10
25.194745
 20
-2.079827
 42
-0.007122
  0
VERTEX
  8
0
 10
25.188858
 20
-2.083945
  0
VERTEX
  8
0
 10
25.057192
 20
-2.173820
 42
-0.007709
  0
VERTEX
  8
0
 10
25.050670
 20
-2.178163
  0
VERTEX
  8
0
 10
24.915543
 20
-2.265285
 42
-0.007384
  0
VERTEX
  8
0
 10
24.909195
 20
-2.269252
  0
VERTEX
  8
0
 10
24.773277
 20
-2.352313
 42
-0.006934
  0
VERTEX
  8
0
 10
24.767283
 20
-2.355880
  0
VERTEX
  8
0
 10
24.628563
 20
-2.435977
 42
-0.007295
  0
VERTEX
  8
0
 10
24.622130
 20
-2.439600
  0
VERTEX
  8
0
 10
24.480908
 20
-2.516563
 42
-0.006966
  0
VERTEX
  8
0
 10
24.474702
 20
-2.519837
  0
VERTEX
  8
0
 10
24.331775
 20
-2.592952
 42
-0.007074
  0
VERTEX
  8
0
 10
24.325385
 20
-2.596112
  0
VERTEX
  8
0
 10
24.181215
 20
-2.665548
 42
-0.006585
  0
VERTEX
  8
0
 10
24.175255
 20
-2.668332
  0
VERTEX
  8
0
 10
24.028697
 20
-2.734625
 42
-0.007893
  0
VERTEX
  8
0
 10
24.021317
 20
-2.737830
  0
VERTEX
  8
0
 10
23.874135
 20
-2.799575
 42
-0.006372
  0
VERTEX
  8
0
 10
23.868257
 20
-2.801973
  0
VERTEX
  8
0
 10
23.719432
 20
-2.860595
 42
-0.007862
  0
VERTEX
  8
0
 10
23.711948
 20
-2.863440
  0
VERTEX
  8
0
 10
23.560817
 20
-2.918302
 42
-0.006812
  0
VERTEX
  8
0
 10
23.554357
 20
-2.920555
  0
VERTEX
  8
0
 10
23.402162
 20
-2.971707
 42
-0.00725
  0
VERTEX
  8
0
 10
23.395185
 20
-2.973945
  0
VERTEX
  8
0
 10
23.242587
 20
-3.020862
 42
-0.006764
  0
VERTEX
  8
0
 10
23.236078
 20
-3.022790
  0
VERTEX
  8
0
 10
23.081390
 20
-3.066477
 42
-0.00788
  0
VERTEX
  8
0
 10
23.073625
 20
-3.068545
  0
VERTEX
  8
0
 10
22.919767
 20
-3.107635
 42
-0.007449
  0
VERTEX
  8
0
 10
22.912433
 20
-3.109422
  0
VERTEX
  8
0
 10
22.755715
 20
-3.145235
 42
-0.007247
  0
VERTEX
  8
0
 10
22.748552
 20
-3.146768
  0
VERTEX
  8
0
 10
22.591230
 20
-3.178435
 42
-0.006778
  0
VERTEX
  8
0
 10
22.584547
 20
-3.179690
  0
VERTEX
  8
0
 10
22.426443
 20
-3.207562
 42
-0.00762
  0
VERTEX
  8
0
 10
22.418800
 20
-3.208795
  0
VERTEX
  8
0
 10
22.261240
 20
-3.232455
 42
-0.006784
  0
VERTEX
  8
0
 10
22.254493
 20
-3.233392
  0
VERTEX
  8
0
 10
22.094980
 20
-3.253458
 42
-0.006972
  0
VERTEX
  8
0
 10
22.088000
 20
-3.254243
  0
VERTEX
  8
0
 10
21.929135
 20
-3.270130
 42
-0.007529
  0
VERTEX
  8
0
 10
21.921525
 20
-3.270805
  0
VERTEX
  8
0
 10
21.760997
 20
-3.282742
 42
-0.00702
  0
VERTEX
  8
0
 10
21.753940
 20
-3.283173
  0
VERTEX
  8
0
 10
21.594505
 20
-3.291245
 42
-0.007338
  0
VERTEX
  8
0
 10
21.587083
 20
-3.291525
  0
VERTEX
  8
0
 10
21.427025
 20
-3.295317
 42
-0.00547
  0
VERTEX
  8
0
 10
21.421717
 20
-3.295405
  0
VERTEX
  8
0
 10
21.342215
 20
-3.295915
  0
VERTEX
  8
0
 10
21.340015
 20
-3.295920
  0
VERTEX
  8
0
 10
14.644747
 20
-3.295920
  0
SEQEND
  0
POLYLINE
  8
0
 66
1
  0
VERTEX
  8
0
 10
11.507513
 20
-3.295920
 42
-0.004176
  0
VERTEX
  8
0
 10
11.503795
 20
-3.295902
  0
VERTEX
  8
0
 10
11.351902
 20
-3.294122
 42
-0.007932
  0
VERTEX
  8
0
 10
11.343815
 20
-3.293905
  0
VERTEX
  8
0
 10
11.192890
 20
-3.287857
 42
-0.007643
  0
VERTEX
  8
0
 10
11.185132
 20
-3.287453
  0
VERTEX
  8
0
 10
11.033495
 20
-3.277293
 42
-0.007322
  0
VERTEX
  8
0
 10
11.026105
 20
-3.276692
  0
VERTEX
  8
0
 10
10.875467
 20
-3.262793
 42
-0.007661
  0
VERTEX
  8
0
 10
10.867722
 20
-3.261963
  0
VERTEX
  8
0
 10
10.718087
 20
-3.244108
 42
-0.007463
  0
VERTEX
  8
0
 10
10.710580
 20
-3.243125
  0
VERTEX
  8
0
 10
10.560213
 20
-3.221283
 42
-0.007548
  0
VERTEX
  8
0
 10
10.552653
 20
-3.220073
  0
VERTEX
  8
0
 10
10.403895
 20
-3.194355
 42
-0.007687
  0
VERTEX
  8
0
 10
10.396205
 20
-3.192928
  0
VERTEX
  8
0
 10
10.247108
 20
-3.162955
 42
-0.007201
  0
VERTEX
  8
0
 10
10.239992
 20
-3.161423
  0
VERTEX
  8
0
 10
10.092147
 20
-3.127753
 42
-0.007707
  0
VERTEX
  8
0
 10
10.084528
 20
-3.125898
  0
VERTEX
  8
0
 10
9.938745
 20
-3.088448
 42
-0.007408
  0
VERTEX
  8
0
 10
9.931498
 20
-3.086508
  0
VERTEX
  8
0
 10
9.785195
 20
-3.045105
 42
-0.008083
  0
VERTEX
  8
0
 10
9.777292
 20
-3.042735
  0
VERTEX
  8
0
 10
9.633475
 20
-2.997727
 42
-0.007602
  0
VERTEX
  8
0
 10
9.626133
 20
-2.995330
  0
VERTEX
  8
0
 10
9.482368
 20
-2.946055
 42
-0.00753
  0
VERTEX
  8
0
 10
9.475172
 20
-2.943472
  0
VERTEX
  8
0
 10
9.333782
 20
-2.890800
 42
-0.007069
  0
VERTEX
  8
0
 10
9.327132
 20
-2.888235
  0
VERTEX
  8
0
 10
9.186267
 20
-2.831735
 42
-0.007593
  0
VERTEX
  8
0
 10
9.179150
 20
-2.828772
  0
VERTEX
  8
0
 10
9.039703
 20
-2.768320
 42
-0.007329
  0
VERTEX
  8
0
 10
9.032935
 20
-2.765273
  0
VERTEX
  8
0
 10
8.896147
 20
-2.701790
 42
-0.007775
  0
VERTEX
  8
0
 10
8.889015
 20
-2.698370
  0
VERTEX
  8
0
 10
8.753493
 20
-2.630863
 42
-0.007519
  0
VERTEX
  8
0
 10
8.746702
 20
-2.627380
  0
VERTEX
  8
0
 10
8.612338
 20
-2.556005
 42
-0.006734
  0
VERTEX
  8
0
 10
8.606417
 20
-2.552763
  0
VERTEX
  8
0
 10
8.474018
 20
-2.478195
 42
-0.00786
  0
VERTEX
  8
0
 10
8.467097
 20
-2.474158
  0
VERTEX
  8
0
 10
8.338043
 20
-2.396673
 42
-0.007806
  0
VERTEX
  8
0
 10
8.331275
 20
-2.392500
  0
VERTEX
  8
0
 10
8.203005
 20
-2.310713
 42
-0.007585
  0
VERTEX
  8
0
 10
8.196570
 20
-2.306478
  0
VERTEX
  8
0
 10
8.071710
 20
-2.222317
 42
-0.007825
  0
VERTEX
  8
0
 10
8.065155
 20
-2.217780
  0
VERTEX
  8
0
 10
7.941580
 20
-2.129475
 42
-0.006772
  0
VERTEX
  8
0
 10
7.936097
 20
-2.125455
  0
VERTEX
  8
0
 10
7.814685
 20
-2.034015
 42
-0.007946
  0
VERTEX
  8
0
 10
7.808290
 20
-2.029043
  0
VERTEX
  8
0
 10
7.690532
 20
-1.935188
 42
-0.007155
  0
VERTEX
  8
0
 10
7.684930
 20
-1.930618
  0
VERTEX
  8
0
 10
7.568460
 20
-1.832928
 42
-0.007284
  0
VERTEX
  8
0
 10
7.562882
 20
-1.828120
  0
VERTEX
  8
0
 10
7.449090
 20
-1.727283
 42
-0.00778
  0
VERTEX
  8
0
 10
7.443240
 20
-1.721942
  0
VERTEX
  8
0
 10
7.333155
 20
-1.618907
 42
-0.00652
  0
VERTEX
  8
0
 10
7.328445
 20
-1.614407
  0
VERTEX
  8
0
 10
7.243930
 20
-1.531660
  0
VERTEX
  8
0
 10
7.149822
 20
-1.440263
  0
VERTEX
  8
0
 10
7.055905
 20
-1.354230
  0
VERTEX
  8
0
 10
6.959465
 20
-1.271157
  0
VERTEX
  8
0
 10
6.860292
 20
-1.190910
  0
VERTEX
  8
0
 10
6.758682
 20
-1.113265
  0
VERTEX
  8
0
 10
6.655213
 20
-1.038947
  0
VERTEX
  8
0
 10
6.549412
 20
-0.967855
  0
VERTEX
  8
0
 10
6.441693
 20
-0.899632
  0
VERTEX
  8
0
 10
6.332045
 20
-0.834895
  0
VERTEX
  8
0
 10
6.220150
 20
-0.773317
  0
VERTEX
  8
0
 10
6.106715
 20
-0.714925
  0
VERTEX
  8
0
 10
5.991833
 20
-0.660230
  0
VERTEX
  8
0
 10
5.874878
 20
-0.608703
  0
VERTEX
  8
0
 10
5.756815
 20
-0.560665
  0
VERTEX
  8
0
 10
5.637232
 20
-0.516420
  0
VERTEX
  8
0
 10
5.516220
 20
-0.475442
  0
VERTEX
  8
0
 10
5.394502
 20
-0.438140
  0
VERTEX
  8
0
 10
5.271678
 20
-0.404685
  0
VERTEX
  8
0
 10
5.147157
 20
-0.374455
  0
VERTEX
  8
0
 10
5.022818
 20
-0.348203
  0
VERTEX
  8
0
 10
4.897172
 20
-0.325707
  0
VERTEX
  8
0
 10
4.771022
 20
-0.306795
  0
VERTEX
  8
0
 10
4.644685
 20
-0.291747
  0
VERTEX
  8
0
 10
4.517500
 20
-0.280492
  0
VERTEX
  8
0
 10
4.386090
 20
-0.272587
  0
VERTEX
  8
0
 10
4.385200
 20
-0.272533
  0
VERTEX
  8
0
 10
4.381895
 20
-0.272332
  0
VERTEX
  8
0
 10
4.253603
 20
-0.268715
  0
VERTEX
  8
0
 10
4.196298
 20
-0.268240
  0
VERTEX
  8
0
 10
0.268713
 20
-0.268240
 42
-0.194853
  0
VERTEX
  8
0
 10
0.011625
 20
-0.372380
 42
-0.414218
  0
VERTEX
  8
0
 10
-0.357780
 20
-0.002975
  0
SEQEND
  0
ARC
  8
0
 10
0.011625
 20
-0.002998
 40
0.279400
 50
177.021262
 51
179.995566
  0
POLYLINE
  8
0
 66
1
  0
VERTEX
  8
0
 10
0.011625
 20
0.276425
 42
-0.226976
  0
VERTEX
  8
0
 10
0.229222
 20
0.172285
  0
VERTEX
  8
0
 10
4.196693
 20
0.172285
 42
-0.004144
  0
VERTEX
  8
0
 10
4.198742
 20
0.172280
  0
VERTEX
  8
0
 10
4.259957
 20
0.171772
 42
-0.006564
  0
VERTEX
  8
0
 10
4.264140
 20
0.171687
  0
VERTEX
  8
0
 10
4.398058
 20
0.167912
 42
-0.009219
  0
VERTEX
  8
0
 10
4.404225
 20
0.167648
  0
VERTEX
  8
0
 10
4.412088
 20
0.167173
  0
VERTEX
  8
0
 10
4.412538
 20
0.167145
  0
VERTEX
  8
0
 10
4.547665
 20
0.159018
 42
-0.008392
  0
VERTEX
  8
0
 10
4.553217
 20
0.158595
  0
VERTEX
  8
0
 10
4.687470
 20
0.146712
 42
-0.00818
  0
VERTEX
  8
0
 10
4.692857
 20
0.146152
  0
VERTEX
  8
0
 10
4.827110
 20
0.130162
 42
-0.008576
  0
VERTEX
  8
0
 10
4.832765
 20
0.129395
  0
VERTEX
  8
0
 10
4.965585
 20
0.109482
 42
-0.008449
  0
VERTEX
  8
0
 10
4.971127
 20
0.108582
  0
VERTEX
  8
0
 10
5.104477
 20
0.084708
 42
-0.008688
  0
VERTEX
  8
0
 10
5.110152
 20
0.083595
  0
VERTEX
  8
0
 10
5.242130
 20
0.055730
 42
-0.008194
  0
VERTEX
  8
0
 10
5.247420
 20
0.054527
  0
VERTEX
  8
0
 10
5.379100
 20
0.022558
 42
-0.007798
  0
VERTEX
  8
0
 10
5.384057
 20
0.021278
  0
VERTEX
  8
0
 10
5.514060
 20
-0.014132
 42
-0.008743
  0
VERTEX
  8
0
 10
5.519662
 20
-0.015748
  0
VERTEX
  8
0
 10
5.648948
 20
-0.055370
 42
-0.008571
  0
VERTEX
  8
0
 10
5.654373
 20
-0.057130
  0
VERTEX
  8
0
 10
5.781460
 20
-0.100165
 42
-0.008351
  0
VERTEX
  8
0
 10
5.786680
 20
-0.102002
  0
VERTEX
  8
0
 10
5.913680
 20
-0.148992
 42
-0.009051
  0
VERTEX
  8
0
 10
5.919325
 20
-0.151193
  0
VERTEX
  8
0
 10
6.043755
 20
-0.201820
 42
-0.00856
  0
VERTEX
  8
0
 10
6.049003
 20
-0.204030
  0
VERTEX
  8
0
 10
6.172953
 20
-0.258640
 42
-0.0091
  0
VERTEX
  8
0
 10
6.178485
 20
-0.261192
  0
VERTEX
  8
0
 10
6.299093
 20
-0.318615
 42
-0.009283
  0
VERTEX
  8
0
 10
6.304678
 20
-0.321365
  0
VERTEX
  8
0
 10
6.425072
 20
-0.383340
 42
-0.008235
  0
VERTEX
  8
0
 10
6.429882
 20
-0.385912
  0
VERTEX
  8
0
 10
6.547978
 20
-0.450900
 42
-0.008469
  0
VERTEX
  8
0
 10
6.552860
 20
-0.453690
  0
VERTEX
  8
0
 10
6.669170
 20
-0.522362
 42
-0.008371
  0
VERTEX
  8
0
 10
6.673910
 20
-0.525262
  0
VERTEX
  8
0
 10
6.787668
 20
-0.597310
 42
-0.00804
  0
VERTEX
  8
0
 10
6.792112
 20
-0.600200
  0
VERTEX
  8
0
 10
6.904380
 20
-0.675638
 42
-0.008964
  0
VERTEX
  8
0
 10
6.909293
 20
-0.679063
  0
VERTEX
  8
0
 10
7.018315
 20
-0.757367
 42
-0.008783
  0
VERTEX
  8
0
 10
7.023028
 20
-0.760845
  0
VERTEX
  8
0
 10
7.130723
 20
-0.843140
 42
-0.008188
  0
VERTEX
  8
0
 10
7.134975
 20
-0.846495
  0
VERTEX
  8
0
 10
7.239713
 20
-0.931245
 42
-0.008582
  0
VERTEX
  8
0
 10
7.244092
 20
-0.934910
  0
VERTEX
  8
0
 10
7.346105
 20
-1.022782
 42
-0.008745
  0
VERTEX
  8
0
 10
7.350465
 20
-1.026645
  0
VERTEX
  8
0
 10
7.450287
 20
-1.118085
 42
-0.008555
  0
VERTEX
  8
0
 10
7.454417
 20
-1.121992
  0
VERTEX
  8
0
 10
7.551037
 20
-1.215833
  0
VERTEX
  8
0
 10
7.551625
 20
-1.216405
  0
VERTEX
  8
0
 10
7.635187
 20
-1.298220
  0
VERTEX
  8
0
 10
7.743042
 20
-1.399167
  0
VERTEX
  8
0
 10
7.853228
 20
-1.496808
  0
VERTEX
  8
0
 10
7.966435
 20
-1.591762
  0
VERTEX
  8
0
 10
8.081570
 20
-1.683528
  0
VERTEX
  8
0
 10
8.199405
 20
-1.772275
  0
VERTEX
  8
0
 10
8.319278
 20
-1.857932
  0
VERTEX
  8
0
 10
8.441790
 20
-1.940510
  0
VERTEX
  8
0
 10
8.566102
 20
-2.019775
  0
VERTEX
  8
0
 10
8.692282
 20
-2.095533
  0
VERTEX
  8
0
 10
8.820970
 20
-2.168010
  0
VERTEX
  8
0
 10
8.951318
 20
-2.237252
  0
VERTEX
  8
0
 10
9.083253
 20
-2.302973
  0
VERTEX
  8
0
 10
9.216970
 20
-2.365030
  0
VERTEX
  8
0
 10
9.352113
 20
-2.423615
  0
VERTEX
  8
0
 10
9.489197
 20
-2.478597
  0
VERTEX
  8
0
 10
9.627327
 20
-2.530057
  0
VERTEX
  8
0
 10
9.766768
 20
-2.577850
  0
VERTEX
  8
0
 10
9.907457
 20
-2.621878
  0
VERTEX
  8
0
 10
10.049425
 20
-2.662055
  0
VERTEX
  8
0
 10
10.192277
 20
-2.698750
  0
VERTEX
  8
0
 10
10.336153
 20
-2.731517
  0
VERTEX
  8
0
 10
10.480715
 20
-2.760578
  0
VERTEX
  8
0
 10
10.625825
 20
-2.785665
  0
VERTEX
  8
0
 10
10.771722
 20
-2.806858
  0
VERTEX
  8
0
 10
10.918310
 20
-2.824350
  0
VERTEX
  8
0
 10
11.065115
 20
-2.837897
  0
VERTEX
  8
0
 10
11.212203
 20
-2.847752
  0
VERTEX
  8
0
 10
11.359578
 20
-2.853658
  0
VERTEX
  8
0
 10
11.507888
 20
-2.855395
  0
VERTEX
  8
0
 10
14.638663
 20
-2.855395
  0
SEQEND
  0
POLYLINE
  8
0
 66
1
  0
VERTEX
  8
0
 10
21.339778
 20
-2.855395
  0
VERTEX
  8
0
 10
21.417488
 20
-2.854897
  0
VERTEX
  8
0
 10
21.574290
 20
-2.851180
  0
VERTEX
  8
0
 10
21.730355
 20
-2.843280
  0
VERTEX
  8
0
 10
21.886640
 20
-2.831657
  0
VERTEX
  8
0
 10
22.042200
 20
-2.816100
  0
VERTEX
  8
0
 10
22.197402
 20
-2.796578
  0
VERTEX
  8
0
 10
22.352250
 20
-2.773325
  0
VERTEX
  8
0
 10
22.506265
 20
-2.746175
  0
VERTEX
  8
0
 10
22.659882
 20
-2.715253
  0
VERTEX
  8
0
 10
22.812220
 20
-2.680442
  0
VERTEX
  8
0
 10
22.963857
 20
-2.641915
  0
VERTEX
  8
0
 10
23.114385
 20
-2.599400
  0
VERTEX
  8
0
 10
23.263983
 20
-2.553408
  0
VERTEX
  8
0
 10
23.412537
 20
-2.503477
  0
VERTEX
  8
0
 10
23.559397
 20
-2.450165
  0
VERTEX
  8
0
 10
23.704950
 20
-2.392832
  0
VERTEX
  8
0
 10
23.849325
 20
-2.332265
  0
VERTEX
  8
0
 10
23.991788
 20
-2.267822
  0
VERTEX
  8
0
 10
24.133047
 20
-2.199790
  0
VERTEX
  8
0
 10
24.272145
 20
-2.128637
  0
VERTEX
  8
0
 10
24.409465
 20
-2.053803
  0
VERTEX
  8
0
 10
24.545085
 20
-1.975495
  0
VERTEX
  8
0
 10
24.678605
 20
-1.893898
  0
VERTEX
  8
0
 10
24.809990
 20
-1.809187
  0
VERTEX
  8
0
 10
24.939183
 20
-1.721002
  0
VERTEX
  8
0
 10
25.066255
 20
-1.629530
  0
VERTEX
  8
0
 10
25.191042
 20
-1.535138
  0
VERTEX
  8
0
 10
25.313323
 20
-1.437560
  0
VERTEX
  8
0
 10
25.433197
 20
-1.336963
  0
VERTEX
  8
0
 10
25.550577
 20
-1.233420
  0
VERTEX
  8
0
 10
25.665185
 20
-1.127210
  0
VERTEX
  8
0
 10
25.777865
 20
-1.017017
  0
VERTEX
  8
0
 10
29.341352
 20
2.546470
  0
SEQEND
  0
POLYLINE
  8
0
 66
1
  0
VERTEX
  8
0
 10
31.046862
 20
4.251980
  0
VERTEX
  8
0
 10
31.046923
 20
4.252040
  0
VERTEX
  8
0
 10
31.051190
 20
4.256305
  0
VERTEX
  8
0
 10
31.137187
 20
4.345252
  0
VERTEX
  8
0
 10
31.219458
 20
4.435772
  0
VERTEX
  8
0
 10
31.298710
 20
4.529128
  0
VERTEX
  8
0
 10
31.375360
 20
4.624998
  0
VERTEX
  8
0
 10
31.448712
 20
4.722885
  0
VERTEX
  8
0
 10
31.519010
 20
4.823342
  0
VERTEX
  8
0
 10
31.585992
 20
4.925517
  0
VERTEX
  8
0
 10
31.649705
 20
5.030082
  0
VERTEX
  8
0
 10
31.710350
 20
5.136755
  0
VERTEX
  8
0
 10
31.767720
 20
5.244935
  0
VERTEX
  8
0
 10
31.821393
 20
5.354950
  0
VERTEX
  8
0
 10
31.871690
 20
5.466482
  0
VERTEX
  8
0
 10
31.918377
 20
5.579800
  0
VERTEX
  8
0
 10
31.961615
 20
5.694445
  0
VERTEX
  8
0
 10
32.001000
 20
5.810175
  0
VERTEX
  8
0
 10
32.037025
 20
5.927498
  0
VERTEX
  8
0
 10
32.069355
 20
6.045635
  0
VERTEX
  8
0
 10
32.097775
 20
6.164665
  0
VERTEX
  8
0
 10
32.122595
 20
6.284620
  0
VERTEX
  8
0
 10
32.143727
 20
6.405337
  0
VERTEX
  8
0
 10
32.160755
 20
6.526715
  0
VERTEX
  8
0
 10
32.174368
 20
6.648268
  0
VERTEX
  8
0
 10
32.183845
 20
6.770490
  0
VERTEX
  8
0
 10
32.189673
 20
6.892672
  0
VERTEX
  8
0
 10
32.191392
 20
7.016472
  0
VERTEX
  8
0
 10
32.191392
 20
8.014283
 42
-0.004004
  0
VERTEX
  8
0
 10
32.191403
 20
8.016155
  0
VERTEX
  8
0
 10
32.191403
 20
8.150628
 42
-0.40928
  0
VERTEX
  8
0
 10
32.363690
 20
8.325852
  0
SEQEND
  0
POLYLINE
  8
0
 66
1
  0
VERTEX
  8
0
 10
32.541902
 20
8.150628
  0
VERTEX
  8
0
 10
32.541902
 20
8.016155
 42
-0.004008
  0
VERTEX
  8
0
 10
32.541913
 20
8.014283
  0
VERTEX
  8
0
 10
32.541913
 20
7.015300
 42
-0.005003
  0
VERTEX
  8
0
 10
32.541888
 20
7.012400
  0
VERTEX
  8
0
 10
32.540118
 20
6.884853
 42
-0.009267
  0
VERTEX
  8
0
 10
32.539923
 20
6.878645
  0
VERTEX
  8
0
 10
32.533858
 20
6.751563
 42
-0.008432
  0
VERTEX
  8
0
 10
32.533515
 20
6.745972
  0
VERTEX
  8
0
 10
32.523607
 20
6.618210
 42
-0.009683
  0
VERTEX
  8
0
 10
32.522982
 20
6.611720
  0
VERTEX
  8
0
 10
32.508875
 20
6.485742
 42
-0.008129
  0
VERTEX
  8
0
 10
32.508210
 20
6.480412
  0
VERTEX
  8
0
 10
32.490515
 20
6.354270
 42
-0.009735
  0
VERTEX
  8
0
 10
32.489505
 20
6.347792
  0
VERTEX
  8
0
 10
32.467405
 20
6.221552
 42
-0.008905
  0
VERTEX
  8
0
 10
32.466280
 20
6.215713
  0
VERTEX
  8
0
 10
32.440488
 20
6.091048
 42
-0.008396
  0
VERTEX
  8
0
 10
32.439273
 20
6.085612
  0
VERTEX
  8
0
 10
32.409788
 20
5.962125
 42
-0.009646
  0
VERTEX
  8
0
 10
32.408190
 20
5.955832
  0
VERTEX
  8
0
 10
32.374407
 20
5.832388
 42
-0.008754
  0
VERTEX
  8
0
 10
32.372775
 20
5.826788
  0
VERTEX
  8
0
 10
32.335310
 20
5.704777
 42
-0.008526
  0
VERTEX
  8
0
 10
32.333557
 20
5.699382
  0
VERTEX
  8
0
 10
32.292538
 20
5.578852
 42
-0.00956
  0
VERTEX
  8
0
 10
32.290355
 20
5.572807
  0
VERTEX
  8
0
 10
32.245663
 20
5.454295
 42
-0.009037
  0
VERTEX
  8
0
 10
32.243455
 20
5.448665
  0
VERTEX
  8
0
 10
32.194688
 20
5.330300
 42
-0.009054
  0
VERTEX
  8
0
 10
32.192285
 20
5.324743
  0
VERTEX
  8
0
 10
32.139940
 20
5.208672
 42
-0.008381
  0
VERTEX
  8
0
 10
32.137580
 20
5.203635
  0
VERTEX
  8
0
 10
32.081645
 20
5.088985
 42
-0.009482
  0
VERTEX
  8
0
 10
32.078765
 20
5.083305
  0
VERTEX
  8
0
 10
32.018822
 20
4.970275
 42
-0.008388
  0
VERTEX
  8
0
 10
32.016137
 20
4.965402
  0
VERTEX
  8
0
 10
31.953357
 20
4.854972
 42
-0.008742
  0
VERTEX
  8
0
 10
31.950408
 20
4.849943
  0
VERTEX
  8
0
 10
31.883860
 20
4.740723
 42
-0.009957
  0
VERTEX
  8
0
 10
31.880255
 20
4.735053
  0
VERTEX
  8
0
 10
31.811113
 20
4.629585
 42
-0.009155
  0
VERTEX
  8
0
 10
31.807685
 20
4.624500
  0
VERTEX
  8
0
 10
31.734278
 20
4.519597
 42
-0.009152
  0
VERTEX
  8
0
 10
31.730675
 20
4.514638
  0
VERTEX
  8
0
 10
31.654225
 20
4.412617
 42
-0.008934
  0
VERTEX
  8
0
 10
31.650568
 20
4.407905
  0
VERTEX
  8
0
 10
31.571220
 20
4.308660
 42
-0.008639
  0
VERTEX
  8
0
 10
31.567573
 20
4.304218
  0
VERTEX
  8
0
 10
31.484768
 20
4.206680
 42
-0.009533
  0
VERTEX
  8
0
 10
31.480530
 20
4.201867
  0
VERTEX
  8
0
 10
31.395015
 20
4.107780
 42
-0.008707
  0
VERTEX
  8
0
 10
31.391055
 20
4.103545
  0
VERTEX
  8
0
 10
31.302155
 20
4.011595
 42
-0.005398
  0
VERTEX
  8
0
 10
31.299880
 20
4.009285
  0
VERTEX
  8
0
 10
31.294718
 20
4.004125
  0
VERTEX
  8
0
 10
29.638672
 20
2.348080
  0
SEQEND
  0
POLYLINE
  8
0
 66
1
  0
VERTEX
  8
0
 10
26.025240
 20
-1.265353
 42
-0.004351
  0
VERTEX
  8
0
 10
26.023620
 20
-1.266957
  0
VERTEX
  8
0
 10
25.908922
 20
-1.379123
 42
-0.007923
  0
VERTEX
  8
0
 10
25.905150
 20
-1.382725
  0
VERTEX
  8
0
 10
25.787295
 20
-1.491945
 42
-0.007554
  0
VERTEX
  8
0
 10
25.783622
 20
-1.495253
  0
VERTEX
  8
0
 10
25.663497
 20
-1.601217
 42
-0.006821
  0
VERTEX
  8
0
 10
25.660175
 20
-1.604078
  0
VERTEX
  8
0
 10
25.537092
 20
-1.707365
 42
-0.006922
  0
VERTEX
  8
0
 10
25.533640
 20
-1.710193
  0
VERTEX
  8
0
 10
25.407910
 20
-1.810523
 42
-0.007531
  0
VERTEX
  8
0
 10
25.404020
 20
-1.813538
  0
VERTEX
  8
0
 10
25.276228
 20
-1.910205
 42
-0.006799
  0
VERTEX
  8
0
 10
25.272715
 20
-1.912800
  0
VERTEX
  8
0
 10
25.142590
 20
-2.006470
 42
-0.007504
  0
VERTEX
  8
0
 10
25.138578
 20
-2.009292
  0
VERTEX
  8
0
 10
25.005735
 20
-2.099970
 42
-0.007897
  0
VERTEX
  8
0
 10
25.001397
 20
-2.102838
  0
VERTEX
  8
0
 10
24.866770
 20
-2.189637
 42
-0.006785
  0
VERTEX
  8
0
 10
24.863083
 20
-2.191950
  0
VERTEX
  8
0
 10
24.726030
 20
-2.275705
 42
-0.007515
  0
VERTEX
  8
0
 10
24.721805
 20
-2.278208
  0
VERTEX
  8
0
 10
24.583335
 20
-2.358160
 42
-0.007503
  0
VERTEX
  8
0
 10
24.579060
 20
-2.360568
  0
VERTEX
  8
0
 10
24.438320
 20
-2.437267
 42
-0.007798
  0
VERTEX
  8
0
 10
24.433788
 20
-2.439670
  0
VERTEX
  8
0
 10
24.291210
 20
-2.512605
 42
-0.00722
  0
VERTEX
  8
0
 10
24.287015
 20
-2.514695
  0
VERTEX
  8
0
 10
24.142183
 20
-2.584448
 42
-0.0069
  0
VERTEX
  8
0
 10
24.138162
 20
-2.586327
  0
VERTEX
  8
0
 10
23.991605
 20
-2.652620
 42
-0.008035
  0
VERTEX
  8
0
 10
23.986740
 20
-2.654733
  0
VERTEX
  8
0
 10
23.838840
 20
-2.716780
 42
-0.007106
  0
VERTEX
  8
0
 10
23.834575
 20
-2.718505
  0
VERTEX
  8
0
 10
23.685662
 20
-2.777160
 42
-0.007656
  0
VERTEX
  8
0
 10
23.680970
 20
-2.778932
  0
VERTEX
  8
0
 10
23.530812
 20
-2.833440
 42
-0.007568
  0
VERTEX
  8
0
 10
23.526140
 20
-2.835085
  0
VERTEX
  8
0
 10
23.373820
 20
-2.886280
 42
-0.007512
  0
VERTEX
  8
0
 10
23.369152
 20
-2.887787
  0
VERTEX
  8
0
 10
23.215483
 20
-2.935033
 42
-0.006893
  0
VERTEX
  8
0
 10
23.211225
 20
-2.936282
  0
VERTEX
  8
0
 10
23.056928
 20
-2.979860
 42
-0.007871
  0
VERTEX
  8
0
 10
23.051925
 20
-2.981193
  0
VERTEX
  8
0
 10
22.896495
 20
-3.020685
 42
-0.007023
  0
VERTEX
  8
0
 10
22.892087
 20
-3.021745
  0
VERTEX
  8
0
 10
22.736518
 20
-3.057295
 42
-0.008209
  0
VERTEX
  8
0
 10
22.731205
 20
-3.058450
  0
VERTEX
  8
0
 10
22.573470
 20
-3.090200
 42
-0.007904
  0
VERTEX
  8
0
 10
22.568358
 20
-3.091150
  0
VERTEX
  8
0
 10
22.411703
 20
-3.118765
 42
-0.008105
  0
VERTEX
  8
0
 10
22.406417
 20
-3.119642
  0
VERTEX
  8
0
 10
22.247412
 20
-3.143520
 42
-0.007225
  0
VERTEX
  8
0
 10
22.242765
 20
-3.144155
  0
VERTEX
  8
0
 10
22.083745
 20
-3.164157
 42
-0.00737
  0
VERTEX
  8
0
 10
22.078978
 20
-3.164690
  0
VERTEX
  8
0
 10
21.919580
 20
-3.180630
 42
-0.007298
  0
VERTEX
  8
0
 10
21.914850
 20
-3.181048
  0
VERTEX
  8
0
 10
21.754323
 20
-3.192985
 42
-0.007239
  0
VERTEX
  8
0
 10
21.749627
 20
-3.193270
  0
VERTEX
  8
0
 10
21.589660
 20
-3.201370
 42
-0.007368
  0
VERTEX
  8
0
 10
21.584860
 20
-3.201548
  0
VERTEX
  8
0
 10
21.424985
 20
-3.205335
 42
-0.00613
  0
VERTEX
  8
0
 10
21.421140
 20
-3.205402
  0
VERTEX
  8
0
 10
21.341638
 20
-3.205913
  0
VERTEX
  8
0
 10
21.339887
 20
-3.205915
  0
VERTEX
  8
0
 10
14.644795
 20
-3.205915
  0
SEQEND
  0
POLYLINE
  8
0
 66
1
  0
VERTEX
  8
0
 10
11.506903
 20
-3.205915
 42
-0.004526
  0
VERTEX
  8
0
 10
11.504437
 20
-3.205897
  0
VERTEX
  8
0
 10
11.353528
 20
-3.204130
 42
-0.008351
  0
VERTEX
  8
0
 10
11.347995
 20
-3.203995
  0
VERTEX
  8
0
 10
11.195850
 20
-3.197900
 42
-0.007955
  0
VERTEX
  8
0
 10
11.190618
 20
-3.197612
  0
VERTEX
  8
0
 10
11.039510
 20
-3.187488
 42
-0.007449
  0
VERTEX
  8
0
 10
11.034662
 20
-3.187095
  0
VERTEX
  8
0
 10
10.884248
 20
-3.173215
 42
-0.007898
  0
VERTEX
  8
0
 10
10.879075
 20
-3.172675
  0
VERTEX
  8
0
 10
10.728423
 20
-3.154698
 42
-0.007564
  0
VERTEX
  8
0
 10
10.723517
 20
-3.154055
  0
VERTEX
  8
0
 10
10.573150
 20
-3.132213
 42
-0.008179
  0
VERTEX
  8
0
 10
10.567810
 20
-3.131353
  0
VERTEX
  8
0
 10
10.419108
 20
-3.105645
 42
-0.007972
  0
VERTEX
  8
0
 10
10.413945
 20
-3.104687
  0
VERTEX
  8
0
 10
10.265358
 20
-3.074817
 42
-0.007623
  0
VERTEX
  8
0
 10
10.260470
 20
-3.073777
  0
VERTEX
  8
0
 10
10.112132
 20
-3.039995
 42
-0.008273
  0
VERTEX
  8
0
 10
10.106810
 20
-3.038695
  0
VERTEX
  8
0
 10
9.960572
 20
-3.001127
 42
-0.007264
  0
VERTEX
  8
0
 10
9.956008
 20
-2.999903
  0
VERTEX
  8
0
 10
9.809705
 20
-2.958500
 42
-0.00789
  0
VERTEX
  8
0
 10
9.804730
 20
-2.957012
  0
VERTEX
  8
0
 10
9.660343
 20
-2.911825
 42
-0.008013
  0
VERTEX
  8
0
 10
9.655315
 20
-2.910188
  0
VERTEX
  8
0
 10
9.511550
 20
-2.860912
 42
-0.008194
  0
VERTEX
  8
0
 10
9.506452
 20
-2.859078
  0
VERTEX
  8
0
 10
9.365573
 20
-2.806592
 42
-0.008007
  0
VERTEX
  8
0
 10
9.360637
 20
-2.804700
  0
VERTEX
  8
0
 10
9.219415
 20
-2.748057
 42
-0.008226
  0
VERTEX
  8
0
 10
9.214398
 20
-2.745953
  0
VERTEX
  8
0
 10
9.075700
 20
-2.685827
 42
-0.007202
  0
VERTEX
  8
0
 10
9.071433
 20
-2.683915
  0
VERTEX
  8
0
 10
8.933513
 20
-2.619908
 42
-0.007943
  0
VERTEX
  8
0
 10
8.928795
 20
-2.617633
  0
VERTEX
  8
0
 10
8.793003
 20
-2.549990
 42
-0.007708
  0
VERTEX
  8
0
 10
8.788510
 20
-2.547670
  0
VERTEX
  8
0
 10
8.655275
 20
-2.476895
 42
-0.007794
  0
VERTEX
  8
0
 10
8.650775
 20
-2.474448
  0
VERTEX
  8
0
 10
8.518185
 20
-2.399773
 42
-0.008289
  0
VERTEX
  8
0
 10
8.513447
 20
-2.397005
  0
VERTEX
  8
0
 10
8.383675
 20
-2.319090
 42
-0.007931
  0
VERTEX
  8
0
 10
8.379235
 20
-2.316333
  0
VERTEX
  8
0
 10
8.252090
 20
-2.235265
 42
-0.008022
  0
VERTEX
  8
0
 10
8.247663
 20
-2.232375
  0
VERTEX
  8
0
 10
8.121422
 20
-2.147285
 42
-0.008362
  0
VERTEX
  8
0
 10
8.116877
 20
-2.144115
  0
VERTEX
  8
0
 10
7.994327
 20
-2.056542
 42
-0.00771
  0
VERTEX
  8
0
 10
7.990245
 20
-2.053560
  0
VERTEX
  8
0
 10
7.868832
 20
-1.962120
 42
-0.008476
  0
VERTEX
  8
0
 10
7.864385
 20
-1.958657
  0
VERTEX
  8
0
 10
7.746932
 20
-1.865045
 42
-0.008123
  0
VERTEX
  8
0
 10
7.742770
 20
-1.861660
  0
VERTEX
  8
0
 10
7.626182
 20
-1.763870
 42
-0.00825
  0
VERTEX
  8
0
 10
7.622052
 20
-1.760295
  0
VERTEX
  8
0
 10
7.508922
 20
-1.660045
 42
-0.007572
  0
VERTEX
  8
0
 10
7.505257
 20
-1.656710
  0
VERTEX
  8
0
 10
7.394260
 20
-1.552822
 42
-0.007088
  0
VERTEX
  8
0
 10
7.390953
 20
-1.549645
  0
VERTEX
  8
0
 10
7.306580
 20
-1.467037
  0
VERTEX
  8
0
 10
7.211658
 20
-1.374848
  0
VERTEX
  8
0
 10
7.115658
 20
-1.286908
  0
VERTEX
  8
0
 10
7.017135
 20
-1.202040
  0
VERTEX
  8
0
 10
6.915985
 20
-1.120192
  0
VERTEX
  8
0
 10
6.812233
 20
-1.040910
  0
VERTEX
  8
0
 10
6.706635
 20
-0.965065
  0
VERTEX
  8
0
 10
6.598560
 20
-0.892445
  0
VERTEX
  8
0
 10
6.488605
 20
-0.822808
  0
VERTEX
  8
0
 10
6.376667
 20
-0.756715
  0
VERTEX
  8
0
 10
6.262523
 20
-0.693900
  0
VERTEX
  8
0
 10
6.146620
 20
-0.634238
  0
VERTEX
  8
0
 10
6.029355
 20
-0.578407
  0
VERTEX
  8
0
 10
5.909928
 20
-0.525790
  0
VERTEX
  8
0
 10
5.789430
 20
-0.476765
  0
VERTEX
  8
0
 10
5.667298
 20
-0.431575
  0
VERTEX
  8
0
 10
5.543832
 20
-0.389767
  0
VERTEX
  8
0
 10
5.419580
 20
-0.351687
  0
VERTEX
  8
0
 10
5.294045
 20
-0.317495
  0
VERTEX
  8
0
 10
5.167142
 20
-0.286685
  0
VERTEX
  8
0
 10
5.040048
 20
-0.259852
  0
VERTEX
  8
0
 10
4.911758
 20
-0.236882
  0
VERTEX
  8
0
 10
4.783037
 20
-0.217585
  0
VERTEX
  8
0
 10
4.653925
 20
-0.202210
  0
VERTEX
  8
0
 10
4.524192
 20
-0.190727
  0
VERTEX
  8
0
 10
4.391493
 20
-0.182745
  0
VERTEX
  8
0
 10
4.390903
 20
-0.182707
  0
VERTEX
  8
0
 10
4.385853
 20
-0.182402
  0
VERTEX
  8
0
 10
4.255377
 20
-0.178723
  0
VERTEX
  8
0
 10
4.196442
 20
-0.178235
  0
VERTEX
  8
0
 10
0.229222
 20
-0.178235
 42
-0.226981
  0
VERTEX
  8
0
 10
0.011625
 20
-0.282375
 42
-0.414219
  0
VERTEX
  8
0
 10
-0.267775
 20
-0.002975
  0
SEQEND
  0
LINE
  8
0
 10
14.641720
 20
-3.295408
 11
14.641720
 21
-3.206402
  0
LINE
  8
0
 10
14.641720
 20
-2.854738
 11
14.641720
 21
-2.765735
  0
LINE
  8
0
 10
29.638672
 20
2.348080
 11
29.585745
 21
2.295152
  0
LINE
  8
0
 10
29.644810
 20
2.849928
 11
31.046862
 21
4.251980
  0
LINE
  8
0
 10
29.638572
 20
2.970975
 11
30.982563
 21
4.314965
  0
LINE
  8
0
 10
14.638628
 20
-3.295920
 11
11.507513
 21
-3.295920
  0
LINE
  8
0
 10
14.638640
 20
-3.205915
 11
11.506903
 21
-3.205915
  0
LINE
  8
0
 10
14.644782
 20
-2.855395
 11
21.339778
 21
-2.855395
  0
LINE
  8
0
 10
14.644845
 20
-2.765390
 11
21.339590
 21
-2.765390
  0
LINE
  8
0
 10
32.365507
 20
8.416065
 11
32.366265
 21
8.325830
  0
LINE
  8
0
 10
-0.358023
 20
0.015700
 11
-0.267030
 21
0.015200
  0
ARC
  8
0
 10
32.366653
 20
8.150633
 40
0.265250
 50
359.999912
 51
89.858428
  0
ARC
  8
0
 10
32.366653
 20
8.150628
 40
0.175248
 50
0.000031
 51
89.320802
  0
ARC
  8
0
 10
0.011625
 20
-0.002975
 40
0.279398
 50
90.000190
 51
175.481952
  0
ARC
  8
0
 10
0.011625
 20
-0.002975
 40
0.369405
 50
89.999980
 51
176.269450
  0
LINE
  8
0
 10
29.281635
 20
2.614037
 11
29.644875
 21
2.227000
  0
LINE
  8
0
 10
29.283223
 20
2.615625
 11
29.638572
 21
2.970975
  0
LINE
  8
0
 10
29.345153
 20
2.550270
 11
29.644810
 21
2.849928
  0
LINE
  8
0
 10
29.580645
 20
2.290052
 11
26.025240
 21
-1.265353
  0
LINE
  8
0
 10
29.642140
 20
2.224263
 11
26.089057
 21
-1.328820
  0
ENDSEC
   0
EOF
